<svg viewBox="-0.75 -0.75 24 24" xmlns="http://www.w3.org/2000/svg" stroke-width="1.5" height="24" width="24"><path d="M4.88 7.969a1.758 1.758 0 1 0 3.516 0 1.758 1.758 0 1 0 -3.516 0Z" fill="none" stroke="#000000" stroke-linecap="round" stroke-linejoin="round" stroke-width="1.5"></path><path d="M18.938 15.895 14.839 9.75a0.791 0.791 0 0 0 -1.306 -0.014L11.428 12.75l-1.303 -1.047a0.79 0.79 0 0 0 -1.152 0.179l-2.686 4.031" fill="none" stroke="#000000" stroke-linecap="round" stroke-linejoin="round" stroke-width="1.5"></path><path d="M2.109 2.834a1.406 1.406 0 0 0 -1.406 1.406v14.019a1.406 1.406 0 0 0 1.406 1.406h18.281a1.406 1.406 0 0 0 1.406 -1.406v-11.25a1.406 1.406 0 0 0 -0.399 -0.982l-2.703 -2.77a1.406 1.406 0 0 0 -1.007 -0.424Z" fill="none" stroke="#000000" stroke-linecap="round" stroke-linejoin="round" stroke-width="1.5"></path></svg>