<svg xmlns="http://www.w3.org/2000/svg" viewBox="-0.5 -0.5 48 48" height="48" width="48"><path d="M17.625 34.439V5.875H13.708v28.564l-4.49 -4.49 -2.769 2.769L15.667 41.936l9.218 -9.218 -2.769 -2.769L17.625 34.439zM35.25 21.542h3.917V5.875a1.958 1.958 0 0 0 -1.958 -1.958h-5.875v3.917h3.917zm3.917 3.917h-7.833a1.958 1.958 0 0 0 -1.958 1.958v7.833a1.958 1.958 0 0 0 1.958 1.958h5.875v1.958h-7.833v3.917h9.792a1.958 1.958 0 0 0 1.958 -1.958v-13.708a1.958 1.958 0 0 0 -1.958 -1.958zm-1.958 7.833h-3.917v-3.917h3.917z" fill="#000000" stroke-width="1"></path></svg>