<svg viewBox="0 0 24 24" xmlns="http://www.w3.org/2000/svg" stroke-width="1.5"><path d="M6.75,11.25a3,3,0,0,1,0-6h10.5a3,3,0,0,1,0,6" fill="none" stroke="#000000" stroke-linecap="round" stroke-linejoin="round"></path><path d="M5.25,17.25a3,3,0,0,1,0-6h13.5a3,3,0,0,1,0,6" fill="none" stroke="#000000" stroke-linecap="round" stroke-linejoin="round"></path><path d="M23.25,20.25a3,3,0,0,1-3,3H3.75a3,3,0,0,1,0-6h16.5A3,3,0,0,1,23.25,20.25Z" fill="none" stroke="#000000" stroke-linecap="round" stroke-linejoin="round"></path><path d="M9.75,5.25V1.5A.75.75,0,0,1,10.5.75h3a.75.75,0,0,1,.75.75V5.25" fill="none" stroke="#000000" stroke-linecap="round" stroke-linejoin="round"></path></svg>