<svg xmlns="http://www.w3.org/2000/svg" viewBox="0 0 24 24" stroke-width="1.5px"><g><g><path d="M13.5,13a4.38,4.38,0,0,1-1.5.26,4.5,4.5,0,1,1,4.5-4.5" fill="none" stroke="#000000" stroke-linecap="round" stroke-linejoin="round"></path><circle cx="12" cy="8.75" r="1.5" fill="none" stroke="#000000" stroke-linecap="round" stroke-linejoin="round"></circle><path d="M13.5,8.75a1.5,1.5,0,0,0,3,0" fill="none" stroke="#000000" stroke-linecap="round" stroke-linejoin="round"></path></g><g><path d="M20.25,12.75V2.25a1.5,1.5,0,0,0-1.5-1.5H5.25a1.5,1.5,0,0,0-1.5,1.5v10.5" fill="none" stroke="#000000" stroke-linecap="round" stroke-linejoin="round"></path><path d="M22,11.46a.77.77,0,0,1,.8-.08.73.73,0,0,1,.42.67v9.7a1.5,1.5,0,0,1-1.5,1.5H2.25a1.5,1.5,0,0,1-1.5-1.5v-9.7a.73.73,0,0,1,.42-.67.77.77,0,0,1,.8.08l8.18,5.9a3,3,0,0,0,3.7,0Z" fill="none" stroke="#000000" stroke-linecap="round" stroke-linejoin="round"></path></g></g></svg>