<?xml version="1.0" encoding="UTF-8"?>
<svg xmlns="http://www.w3.org/2000/svg" viewBox="0 0 50 50" width="50px" height="50px">
<g id="surface57777300">
<path style="fill-rule:nonzero;fill:rgb(0%,0%,0%);fill-opacity:1;stroke-width:3;stroke-linecap:butt;stroke-linejoin:round;stroke:rgb(0%,0%,0%);stroke-opacity:1;stroke-miterlimit:10;" d="M 48.159234 13.759781 C 50.972369 13.759781 52.952488 15.453125 54.372712 17.078188 C 55.806591 18.689595 56.940039 20.533155 58.018863 22.25381 C 59.097686 23.974466 60.135542 25.585873 60.968558 26.555449 C 61.815229 27.511369 62.211253 27.525025 61.924477 27.525025 L 154.798903 27.525025 C 160.452485 27.525025 165.122836 32.181719 165.122836 37.835301 L 165.122836 147.916281 C 165.122836 153.58352 160.452485 158.240214 154.798903 158.240214 L 17.201092 158.240214 C 11.533854 158.240214 6.877159 153.58352 6.877159 147.916281 L 6.877159 24.083714 C 6.877159 18.416476 11.533854 13.759781 17.201092 13.759781 Z M 13.759781 24.083714 L 13.759781 45.359755 C 14.838605 44.977387 15.985708 44.717923 17.201092 44.717923 L 154.798903 44.717923 C 156.014287 44.717923 157.16139 44.977387 158.240214 45.359755 L 158.240214 37.835301 C 158.240214 35.909806 156.738055 34.39399 154.798903 34.39399 L 61.924477 34.39399 C 59.097686 34.39399 57.172191 32.673335 55.765623 31.061927 C 54.372712 29.45052 53.266576 27.620617 52.187753 25.913617 C 51.108929 24.192962 50.071073 22.59521 49.224402 21.625635 C 48.364074 20.669715 47.954394 20.642403 48.159234 20.642403 L 17.201092 20.642403 C 15.261941 20.642403 13.759781 22.144562 13.759781 24.083714 Z M 13.759781 55.041856 L 13.759781 147.916281 C 13.759781 149.855433 15.261941 151.357592 17.201092 151.357592 L 154.798903 151.357592 C 156.738055 151.357592 158.240214 149.855433 158.240214 147.916281 L 158.240214 55.041856 C 158.240214 53.102704 156.738055 51.600545 154.798903 51.600545 L 17.201092 51.600545 C 15.261941 51.600545 13.759781 53.102704 13.759781 55.041856 Z M 13.759781 55.041856 " transform="matrix(0.286047,0,0,0.286047,0.4,0.4)"/>
<path style=" stroke:none;fill-rule:nonzero;fill:rgb(0%,0%,0%);fill-opacity:1;" d="M 5.320312 4.335938 C 3.699219 4.335938 2.367188 5.667969 2.367188 7.289062 L 2.367188 42.710938 C 2.367188 44.332031 3.699219 45.664062 5.320312 45.664062 L 44.679688 45.664062 C 46.296875 45.664062 47.632812 44.332031 47.632812 42.710938 L 47.632812 11.222656 C 47.632812 9.605469 46.296875 8.273438 44.679688 8.273438 L 18.113281 8.273438 C 18.195312 8.273438 18.082031 8.273438 17.839844 7.996094 C 17.601562 7.71875 17.304688 7.257812 16.996094 6.765625 C 16.6875 6.273438 16.363281 5.746094 15.953125 5.285156 C 15.546875 4.820312 14.980469 4.335938 14.175781 4.335938 Z M 5.320312 6.304688 L 14.175781 6.304688 C 14.117188 6.304688 14.234375 6.3125 14.480469 6.585938 C 14.722656 6.863281 15.019531 7.320312 15.328125 7.8125 C 15.636719 8.300781 15.953125 8.824219 16.351562 9.285156 C 16.753906 9.746094 17.304688 10.238281 18.113281 10.238281 L 44.679688 10.238281 C 45.234375 10.238281 45.664062 10.671875 45.664062 11.222656 L 45.664062 13.375 C 45.355469 13.265625 45.027344 13.191406 44.679688 13.191406 L 5.320312 13.191406 C 4.972656 13.191406 4.644531 13.265625 4.335938 13.375 L 4.335938 7.289062 C 4.335938 6.734375 4.765625 6.304688 5.320312 6.304688 Z M 5.320312 15.160156 L 44.679688 15.160156 C 45.234375 15.160156 45.664062 15.589844 45.664062 16.144531 L 45.664062 42.710938 C 45.664062 43.265625 45.234375 43.695312 44.679688 43.695312 L 5.320312 43.695312 C 4.765625 43.695312 4.335938 43.265625 4.335938 42.710938 L 4.335938 16.144531 C 4.335938 15.589844 4.765625 15.160156 5.320312 15.160156 Z M 5.320312 15.160156 "/>
</g>
</svg>
