<svg xmlns="http://www.w3.org/2000/svg" fill="none" viewBox="-7 -7 250 250" height="250" width="250"><g id="credit-card-3--deposit-payment-finance-atm-withdraw-atm"><path id="Vector 2494" stroke="#000000" stroke-linecap="round" stroke-linejoin="round" d="M118 8.428571428571429v33.714285714285715" stroke-width="14"></path><path id="Vector 2495" stroke="#000000" stroke-linecap="round" stroke-linejoin="round" d="M160.14285714285714 25.285714285714285v33.714285714285715" stroke-width="14"></path><path id="Vector 2496" stroke="#000000" stroke-linecap="round" stroke-linejoin="round" d="M75.85714285714286 25.285714285714285v33.714285714285715" stroke-width="14"></path><path id="Vector" stroke="#000000" stroke-linecap="round" stroke-linejoin="round" d="M210.71428571428572 92.71428571428572h-185.42857142857144c-9.309947142857144 0 -16.857142857142858 7.547280000000001 -16.857142857142858 16.857142857142858v101.14285714285714c0 9.3102 7.5471957142857145 16.857142857142858 16.857142857142858 16.857142857142858h185.42857142857144c9.3102 0 16.857142857142858 -7.546942857142857 16.857142857142858 -16.857142857142858v-101.14285714285714c0 -9.309862857142857 -7.546942857142857 -16.857142857142858 -16.857142857142858 -16.857142857142858Z" stroke-width="14"></path><path id="Vector_2" stroke="#000000" stroke-linecap="round" stroke-linejoin="round" d="M118 189.64285714285714c16.292428571428573 0 29.5 -13.207571428571429 29.5 -29.5S134.2924285714286 130.64285714285714 118 130.64285714285714s-29.5 13.207571428571429 -29.5 29.5 13.207571428571429 29.5 29.5 29.5Z" stroke-width="14"></path><g id="Group 8"><path id="Ellipse 1" stroke="#000000" stroke-linecap="round" stroke-linejoin="round" d="M46.77688571428572 164.35714285714286c-2.3274657142857142 0 -4.214285714285714 -1.8868200000000002 -4.214285714285714 -4.214285714285714s1.8868200000000002 -4.214285714285714 4.214285714285714 -4.214285714285714" stroke-width="14"></path><path id="Ellipse 2" stroke="#000000" stroke-linecap="round" stroke-linejoin="round" d="M46.777728571428575 164.35714285714286c2.3274657142857142 0 4.214285714285714 -1.8868200000000002 4.214285714285714 -4.214285714285714s-1.8868200000000002 -4.214285714285714 -4.214285714285714 -4.214285714285714" stroke-width="14"></path></g><g id="Group 9"><path id="Ellipse 1_2" stroke="#000000" stroke-linecap="round" stroke-linejoin="round" d="M189.22311428571427 164.35714285714286c-2.327971428571429 0 -4.214285714285714 -1.8868200000000002 -4.214285714285714 -4.214285714285714s1.8863142857142858 -4.214285714285714 4.214285714285714 -4.214285714285714" stroke-width="14"></path><path id="Ellipse 2_2" stroke="#000000" stroke-linecap="round" stroke-linejoin="round" d="M189.22311428571427 164.35714285714286c2.327971428571429 0 4.214285714285714 -1.8868200000000002 4.214285714285714 -4.214285714285714s-1.8863142857142858 -4.214285714285714 -4.214285714285714 -4.214285714285714" stroke-width="14"></path></g></g></svg>