<svg viewBox="-0.75 -0.75 24 24" xmlns="http://www.w3.org/2000/svg"><path d="M20.390625 8.4375V5.625a1.40625 1.40625 0 0 0 -1.40625 -1.40625h-11.25V2.8125a1.40625 1.40625 0 0 0 -1.40625 -1.40625h-4.21875A1.40625 1.40625 0 0 0 0.703125 2.8125v16.6875a1.59375 1.59375 0 0 0 3.1275 0.410625l2.205 -10.456875A1.40625 1.40625 0 0 1 7.386562499999999 8.4375H20.390625a1.40625 1.40625 0 0 1 1.359375 1.768125l-2.0625 9.84375a1.40625 1.40625 0 0 1 -1.359375 1.044375H2.2940625" fill="none" stroke="#000000" stroke-linecap="round" stroke-linejoin="round" stroke-width="1.5"></path><path d="M10.936875 17.1975a2.0821875 2.0821875 0 0 0 1.741875 0.8203125c1.066875 0 1.9331249999999998 -0.6496875 1.9331249999999998 -1.4503125s-0.8662500000000001 -1.449375 -1.9331249999999998 -1.449375 -1.9340625000000002 -0.6496875 -1.9340625000000002 -1.45125 0.8662500000000001 -1.4503125 1.9340625000000002 -1.4503125a2.0840625 2.0840625 0 0 1 1.741875 0.8203125" fill="none" stroke="#000000" stroke-linecap="round" stroke-linejoin="round" stroke-width="1.5"></path><path d="m12.678749999999999 18.0178125 0 0.9665624999999999" fill="none" stroke="#000000" stroke-linecap="round" stroke-linejoin="round" stroke-width="1.5"></path><path d="m12.678749999999999 11.25 0 0.9665624999999999" fill="none" stroke="#000000" stroke-linecap="round" stroke-linejoin="round" stroke-width="1.5"></path></svg>