<svg xmlns="http://www.w3.org/2000/svg" viewBox="0 0 24 24" stroke-width="1.5px" height="24" width="24"><g><path d="M.75,22.75v-4.5a1.5,1.5,0,0,1,1.5-1.5h19.5a1.5,1.5,0,0,1,1.5,1.5v4.5" fill="none" stroke="#000000" stroke-linecap="round" stroke-linejoin="round"></path><path d="M2.5,16.75v-4.5a1.94,1.94,0,0,1,1.88-2h6.74a1.94,1.94,0,0,1,1.88,2v4.5" fill="none" stroke="#000000" stroke-linecap="round" stroke-linejoin="round"></path><line x1="5.25" y1="10.25" x2="5.25" y2="7" fill="none" stroke="#000000" stroke-linecap="round" stroke-linejoin="round"></line><line x1="5.5" y1="13.25" x2="7.5" y2="13.25" fill="none" stroke="#000000" stroke-linecap="round" stroke-linejoin="round"></line><g><circle cx="18.25" cy="4.25" r="3" fill="none" stroke="#000000" stroke-linecap="round" stroke-linejoin="round"></circle><path d="M22.75,13.25a4.5,4.5,0,0,0-7.69-3.17" fill="none" stroke="#000000" stroke-linecap="round" stroke-linejoin="round"></path></g><rect x="1.75" y="3.52" width="7" height="3.5" rx="0.5" fill="none" stroke="#000000" stroke-linecap="round" stroke-linejoin="round"></rect></g></svg>