<svg xmlns="http://www.w3.org/2000/svg" viewBox="0 0 24 24" stroke-width="1.5px" height="24" width="24"><defs></defs><title>online-learning-exam-3</title><rect x="4.75" y="4.25" width="4" height="4" fill="none" stroke="#000000" stroke-linecap="round" stroke-linejoin="round"></rect><rect x="4.75" y="11.75" width="4" height="4" fill="none" stroke="#000000" stroke-linecap="round" stroke-linejoin="round"></rect><path d="M23.25,7.75v9.5a1.5,1.5,0,0,1-1.5,1.5H2.25a1.5,1.5,0,0,1-1.5-1.5v-15A1.5,1.5,0,0,1,2.25.75h13.5" fill="none" stroke="#000000" stroke-linecap="round" stroke-linejoin="round"></path><polygon points="15.75 23.25 8.25 23.25 9 18.75 15 18.75 15.75 23.25" fill="none" stroke="#000000" stroke-linecap="round" stroke-linejoin="round"></polygon><line x1="6" y1="23.25" x2="18" y2="23.25" fill="none" stroke="#000000" stroke-linecap="round" stroke-linejoin="round"></line><path d="M22.674,4,15.816,10.86l-3.369.674.674-3.37,6.857-6.857a1.9,1.9,0,0,1,2.688,0l.008.008A1.9,1.9,0,0,1,22.674,4Z" fill="none" stroke="#000000" stroke-linecap="round" stroke-linejoin="round"></path></svg>