<svg xmlns="http://www.w3.org/2000/svg" viewBox="0 0 24 24" stroke-width="1.5px" height="24" width="24"><defs></defs><path d="M15.093,12.343a2.429,2.429,0,0,0,2.031.956c1.244,0,2.254-.757,2.254-1.691s-1.01-1.69-2.254-1.69-2.255-.758-2.255-1.692,1.01-1.691,2.255-1.691a2.43,2.43,0,0,1,2.031.956" fill="none" stroke="#000000" stroke-linecap="round" stroke-linejoin="round"></path><line x1="17.124" y1="13.299" x2="17.124" y2="14.426" fill="none" stroke="#000000" stroke-linecap="round" stroke-linejoin="round"></line><line x1="17.124" y1="5.408" x2="17.124" y2="6.535" fill="none" stroke="#000000" stroke-linecap="round" stroke-linejoin="round"></line><rect x="1" y="2.25" width="22" height="16" rx="2.646" fill="none" stroke="#000000" stroke-linecap="round" stroke-linejoin="round"></rect><line x1="12" y1="18.25" x2="12" y2="21.75" fill="none" stroke="#000000" stroke-linecap="round" stroke-linejoin="round"></line><line x1="7" y1="21.75" x2="17" y2="21.75" fill="none" stroke="#000000" stroke-linecap="round" stroke-linejoin="round"></line><line x1="4.622" y1="6.689" x2="10.634" y2="6.689" fill="none" stroke="#000000" stroke-linecap="round" stroke-linejoin="round"></line><line x1="4.622" y1="10.515" x2="10.634" y2="10.515" fill="none" stroke="#000000" stroke-linecap="round" stroke-linejoin="round"></line><line x1="4.622" y1="14.341" x2="7.628" y2="14.341" fill="none" stroke="#000000" stroke-linecap="round" stroke-linejoin="round"></line></svg>