<svg viewBox="0 0 24 24" height="24" width="24" xmlns="http://www.w3.org/2000/svg" stroke-width="1.5"><path d="M6.75,8.25H5.25a1.5,1.5,0,0,0-1.5,1.5v6a1.5,1.5,0,0,0,1.5,1.5h13.5a1.5,1.5,0,0,0,1.5-1.5v-6a1.5,1.5,0,0,0-1.5-1.5h-1.5" fill="none" stroke="#000000" stroke-linecap="round" stroke-linejoin="round"></path><path d="M20.249,23.25H3.751a1.5,1.5,0,0,1-1.4-2.026l.953-3a1.5,1.5,0,0,1,1.4-.974h14.42a1.5,1.5,0,0,1,1.4.974l1.125,3A1.5,1.5,0,0,1,20.249,23.25Z" fill="none" stroke="#000000" stroke-linecap="round" stroke-linejoin="round"></path><path d="M10.501 20.25L13.501 20.25" fill="none" stroke="#000000" stroke-linecap="round" stroke-linejoin="round"></path><path d="M12.001 0.75L12.001 13.5" fill="none" stroke="#000000" stroke-linecap="round" stroke-linejoin="round"></path><path d="M15.001 10.5L12.001 13.5 9.001 10.5" fill="none" stroke="#000000" stroke-linecap="round" stroke-linejoin="round"></path></svg>