<svg xmlns="http://www.w3.org/2000/svg" fill="none" viewBox="-7 -7 250 250" height="250" width="250"><g id="inbox--mail-email-outbox-drawer-empty-open-inbox"><path id="Vector" stroke="#000000" stroke-linecap="round" stroke-linejoin="round" d="M210.71428571428572 8.428571428571429h-185.42857142857144c-9.309947142857144 0 -16.857142857142858 7.5471957142857145 -16.857142857142858 16.857142857142858v185.42857142857144c0 9.3102 7.5471957142857145 16.857142857142858 16.857142857142858 16.857142857142858h185.42857142857144c9.3102 0 16.857142857142858 -7.546942857142857 16.857142857142858 -16.857142857142858v-185.42857142857144c0 -9.309947142857144 -7.546942857142857 -16.857142857142858 -16.857142857142858 -16.857142857142858Z" stroke-width="14"></path><path id="Vector_2" stroke="#000000" stroke-linecap="round" stroke-linejoin="round" d="M8.428571428571429 134.85714285714286H67.42857142857143c4.470851428571429 0 8.758465714285714 1.7760685714285713 11.919854285714287 4.937288571428572C82.50964571428571 142.95582000000002 84.28571428571429 147.2434342857143 84.28571428571429 151.71428571428572c0 8.941534285714285 3.5519685714285716 17.516257142857143 9.874745714285716 23.83937142857143C100.48306857142857 181.87677142857146 109.05846571428572 185.42857142857144 118 185.42857142857144s17.51693142857143 -3.5518 23.83954 -9.874914285714286C148.16231714285715 169.23054285714286 151.71428571428572 160.65582 151.71428571428572 151.71428571428572c0 -4.470851428571429 1.7760685714285713 -8.758465714285714 4.937288571428572 -11.919854285714287C159.81296285714288 136.63321142857143 164.10057714285716 134.85714285714286 168.57142857142858 134.85714285714286h59" stroke-width="14"></path></g></svg>