<svg xmlns="http://www.w3.org/2000/svg" viewBox="0 0 24 24" stroke-width="1.5px" height="14" width="14"><g><path d="M23.25,15v3.5a1.5,1.5,0,0,1-1.5,1.5H2.25a1.5,1.5,0,0,1-1.5-1.5V15a3,3,0,0,0,0-6V5.5A1.5,1.5,0,0,1,2.25,4h19.5a1.5,1.5,0,0,1,1.5,1.5V9a3,3,0,0,0,0,6Z" fill="none" stroke="#000000" stroke-linecap="round" stroke-linejoin="round"></path><circle cx="8.75" cy="9" r="1.5" fill="none" stroke="#000000" stroke-linecap="round" stroke-linejoin="round"></circle><circle cx="16" cy="15" r="1.5" fill="none" stroke="#000000" stroke-linecap="round" stroke-linejoin="round"></circle><line x1="15.75" y1="8.25" x2="8.25" y2="15.75" fill="none" stroke="#000000" stroke-linecap="round" stroke-linejoin="round"></line></g></svg>