<svg xmlns="http://www.w3.org/2000/svg" viewBox="0 0 24 24" stroke-width="1.5px" height="24" width="24"><g><line x1="6" y1="6.75" x2="12" y2="6.75" fill="none" stroke="#000000" stroke-linecap="round" stroke-linejoin="round"></line><line x1="6" y1="11.25" x2="9.75" y2="11.25" fill="none" stroke="#000000" stroke-linecap="round" stroke-linejoin="round"></line><line x1="6" y1="15.75" x2="9.75" y2="15.75" fill="none" stroke="#000000" stroke-linecap="round" stroke-linejoin="round"></line><line x1="16.5" y1="6.75" x2="18" y2="6.75" fill="none" stroke="#000000" stroke-linecap="round" stroke-linejoin="round"></line><g><path d="M13.89,16.56a2.22,2.22,0,0,0,1.86.88c1.14,0,2.06-.7,2.06-1.55s-.92-1.55-2.06-1.55-2.06-.69-2.06-1.55.92-1.54,2.06-1.54a2.24,2.24,0,0,1,1.86.87" fill="none" stroke="#000000" stroke-linecap="round" stroke-linejoin="round"></path><line x1="15.75" y1="17.44" x2="15.75" y2="18.47" fill="none" stroke="#000000" stroke-linecap="round" stroke-linejoin="round"></line><line x1="15.75" y1="10.22" x2="15.75" y2="11.25" fill="none" stroke="#000000" stroke-linecap="round" stroke-linejoin="round"></line></g><polygon points="21 0.75 18 3.75 15 0.75 12 3.75 9 0.75 6 3.75 3 0.75 3 23.25 6 20.25 9 23.25 12 20.25 15 23.25 18 20.25 21 23.25 21 0.75" fill="none" stroke="#000000" stroke-linecap="round" stroke-linejoin="round"></polygon></g></svg>