<svg viewBox="-4 -4 128 128" xmlns="http://www.w3.org/2000/svg" height="128" width="128"><path d="m78.75 48.745000000000005 -19.905 26.54a3.75 3.75 0 0 1 -5.6499999999999995 0.4L41.25 63.745000000000005" fill="none" stroke="#000000" stroke-linecap="round" stroke-linejoin="round" stroke-width="8"></path><path d="M53.650000000000006 6.785a8.149999999999999 8.149999999999999 0 0 1 12.7 0l7.5600000000000005 9.405a8.145 8.145 0 0 0 7.2299999999999995 3l12 -1.3050000000000002a8.149999999999999 8.149999999999999 0 0 1 9 9l-1.3050000000000002 12a8.145 8.145 0 0 0 3 7.2299999999999995l9.405 7.5600000000000005a8.149999999999999 8.149999999999999 0 0 1 0 12.7l-9.435 7.5249999999999995a8.16 8.16 0 0 0 -3 7.235l1.3050000000000002 12a8.145 8.145 0 0 1 -9 9l-12 -1.3050000000000002a8.139999999999999 8.139999999999999 0 0 0 -7.2299999999999995 3L66.35 113.2a8.145 8.145 0 0 1 -12.7 0l-7.555 -9.399999999999999a8.155 8.155 0 0 0 -7.235 -3l-12 1.3050000000000002a8.139999999999999 8.139999999999999 0 0 1 -9 -9l1.3050000000000002 -12a8.155 8.155 0 0 0 -3 -7.235l-9.399999999999999 -7.555a8.145 8.145 0 0 1 0 -12.7l9.399999999999999 -7.5600000000000005a8.139999999999999 8.139999999999999 0 0 0 3 -7.2299999999999995l-1.3050000000000002 -12a8.145 8.145 0 0 1 9 -9l12 1.3050000000000002a8.16 8.16 0 0 0 7.235 -3Z" fill="none" stroke="#000000" stroke-linecap="round" stroke-linejoin="round" stroke-width="8"></path></svg>