<svg xmlns="http://www.w3.org/2000/svg" fill="none" viewBox="-0.75 -0.75 24 24"><path stroke="#000000" stroke-linecap="round" stroke-linejoin="round" stroke-miterlimit="10" d="M12.890625 20.859375c0 0.5625 -0.375 0.9375 -0.9375 0.9375h-4.21875c-0.5625 0 -0.9375 -0.375 -0.9375 -0.9375v-4.21875c0 -0.5625 0.375 -0.9375 0.9375 -0.9375h4.21875c0.5625 0 0.9375 0.375 0.9375 0.9375v4.21875Z" stroke-width="1.5"></path><path stroke="#000000" stroke-linecap="round" stroke-linejoin="round" stroke-miterlimit="10" d="M21.796875 20.859375c0 0.5625 -0.375 0.9375 -0.9375 0.9375h-4.21875c-0.5625 0 -0.9375 -0.375 -0.9375 -0.9375v-4.21875c0 -0.5625 0.375 -0.9375 0.9375 -0.9375h4.21875c0.5625 0 0.9375 0.375 0.9375 0.9375v4.21875Z" stroke-width="1.5"></path><path stroke="#000000" stroke-linecap="round" stroke-linejoin="round" stroke-miterlimit="10" d="M12.890625 18.796875h2.8125" stroke-width="1.5"></path><path stroke="#000000" stroke-linecap="round" stroke-linejoin="round" stroke-miterlimit="10" d="M8.015615624999999 7.078125c4.038571875 0 7.312509375 -1.427090625 7.312509375 -3.1875S12.0541875 0.703125 8.015615624999999 0.703125C3.9770343749999997 0.703125 0.703125 2.130215625 0.703125 3.8906250000000004s3.273909375 3.1875 7.312490625000001 3.1875Z" stroke-width="1.5"></path><path stroke="#000000" stroke-linecap="round" stroke-linejoin="round" stroke-miterlimit="10" d="M0.703125 3.8905312499999996v4.875c0 1.78125 3.281240625 3.1875 7.312490625000001 3.1875 4.031259375 0 7.312509375 -1.40625 7.312509375 -3.1875v-4.875" stroke-width="1.5"></path><path stroke="#000000" stroke-linecap="round" stroke-linejoin="round" stroke-miterlimit="10" d="M15.328125000000002 12.890625V8.765606250000001" stroke-width="1.5"></path><path stroke="#000000" stroke-linecap="round" stroke-linejoin="round" stroke-miterlimit="10" d="M0.703125 8.765606250000001V13.640625c0 1.125 1.2187312499999998 2.0625 2.9999812500000003 2.625" stroke-width="1.5"></path></svg>