<svg xmlns="http://www.w3.org/2000/svg" viewBox="0 0 14 14" height="600" width="600"><g><path d="M7.47,6.9a1.18,1.18,0,0,1-.94,0L.83,4.26a.56.56,0,0,1,0-1L6.53.6a1.18,1.18,0,0,1,.94,0l5.7,2.64a.56.56,0,0,1,0,1Z" fill="none" stroke="#000000" stroke-linecap="round" stroke-linejoin="round"></path><path d="M13.5,7.35,7.4,10.16a1,1,0,0,1-.83,0L.5,7.35" fill="none" stroke="#000000" stroke-linecap="round" stroke-linejoin="round"></path><path d="M13.5,10.6,7.4,13.41a1,1,0,0,1-.83,0L.5,10.6" fill="none" stroke="#000000" stroke-linecap="round" stroke-linejoin="round"></path></g></svg>