<svg xmlns="http://www.w3.org/2000/svg" viewBox="0 0 24 24" stroke-width="1.5px" height="24" width="24"><g><line x1="1.5" y1="23.25" x2="22.5" y2="23.25" fill="none" stroke="#000000" stroke-linecap="round" stroke-linejoin="round"></line><line x1="1.5" y1="18.75" x2="22.5" y2="18.75" fill="none" stroke="#000000" stroke-linecap="round" stroke-linejoin="round"></line><line x1="3" y1="18.75" x2="3" y2="23.25" fill="none" stroke="#000000" stroke-linecap="round" stroke-linejoin="round"></line><line x1="21" y1="18.75" x2="21" y2="23.25" fill="none" stroke="#000000" stroke-linecap="round" stroke-linejoin="round"></line><line x1="9" y1="18.75" x2="9" y2="23.25" fill="none" stroke="#000000" stroke-linecap="round" stroke-linejoin="round"></line><line x1="15" y1="18.75" x2="15" y2="23.25" fill="none" stroke="#000000" stroke-linecap="round" stroke-linejoin="round"></line><path d="M12,8.25H4.5A1.5,1.5,0,0,0,3,9.75v4.5a1.5,1.5,0,0,0,1.5,1.5h6a1.5,1.5,0,0,0,1.5-1.5Z" fill="none" stroke="#000000" stroke-linecap="round" stroke-linejoin="round"></path><path d="M19.5,8.25H12v6a1.5,1.5,0,0,0,1.5,1.5h6a1.5,1.5,0,0,0,1.5-1.5V9.75A1.5,1.5,0,0,0,19.5,8.25Z" fill="none" stroke="#000000" stroke-linecap="round" stroke-linejoin="round"></path><path d="M15,.75H9a1.5,1.5,0,0,0-1.5,1.5v6h9v-6A1.5,1.5,0,0,0,15,.75Z" fill="none" stroke="#000000" stroke-linecap="round" stroke-linejoin="round"></path><line x1="12" y1="0.75" x2="12" y2="3.75" fill="none" stroke="#000000" stroke-linecap="round" stroke-linejoin="round"></line><line x1="7.5" y1="8.25" x2="7.5" y2="11.25" fill="none" stroke="#000000" stroke-linecap="round" stroke-linejoin="round"></line><line x1="16.5" y1="8.25" x2="16.5" y2="11.25" fill="none" stroke="#000000" stroke-linecap="round" stroke-linejoin="round"></line></g></svg>