<svg viewBox="0 0 24 24" xmlns="http://www.w3.org/2000/svg" stroke-width="1.5" height="48" width="48"><path d="M3.750 19.000 A1.500 1.500 0 1 0 6.750 19.000 A1.500 1.500 0 1 0 3.750 19.000 Z" fill="none" stroke="#212121" stroke-linecap="round" stroke-linejoin="round"></path><path d="M17.250 19.000 A1.500 1.500 0 1 0 20.250 19.000 A1.500 1.500 0 1 0 17.250 19.000 Z" fill="none" stroke="#212121" stroke-linecap="round" stroke-linejoin="round"></path><path d="M20.25,19h1.5a1.5,1.5,0,0,0,1.5-1.5v-3a1.5,1.5,0,0,0-1.5-1.5h-3a6,6,0,0,0-6-6h-3A1.921,1.921,0,0,0,7.886,8.455L6.75,13h-3a3,3,0,0,0-3,3v1.5A1.5,1.5,0,0,0,2.25,19h1.5" fill="none" stroke="#212121" stroke-linecap="round" stroke-linejoin="round"></path><path d="M6.75 19L17.25 19" fill="none" stroke="#212121" stroke-linecap="round" stroke-linejoin="round"></path><path d="M6.75 13L18.75 13" fill="none" stroke="#212121" stroke-linecap="round" stroke-linejoin="round"></path><path d="M8.25 16L9 16" fill="none" stroke="#212121" stroke-linecap="round" stroke-linejoin="round"></path><path d="M12 16L12.75 16" fill="none" stroke="#212121" stroke-linecap="round" stroke-linejoin="round"></path><path d="M15.75 16L16.5 16" fill="none" stroke="#212121" stroke-linecap="round" stroke-linejoin="round"></path><path d="M9.75,7V5.5A1.5,1.5,0,0,1,11.25,4H12a1.5,1.5,0,0,1,1.5,1.5V7.047" fill="none" stroke="#212121" stroke-linecap="round" stroke-linejoin="round"></path></svg>