<svg viewBox="0 0 24 24" xmlns="http://www.w3.org/2000/svg" stroke-width="1.5" height="48" width="48"><path d="M5.75.763h12.5a2,2,0,0,1,2,2v13.5a1,1,0,0,1-1,1H4.75a1,1,0,0,1-1-1V2.763A2,2,0,0,1,5.75.763Z" fill="none" stroke="#212121" stroke-linecap="round" stroke-linejoin="round"></path><path d="M1.5 23.263L3.75 20.263" fill="none" stroke="#212121" stroke-linecap="round" stroke-linejoin="round"></path><path d="M22.5 23.263L20.25 20.263" fill="none" stroke="#212121" stroke-linecap="round" stroke-linejoin="round"></path><path d="M3.75 9.763L20.25 9.763" fill="none" stroke="#212121" stroke-linecap="round" stroke-linejoin="round"></path><path d="M12 0.763L12 9.763" fill="none" stroke="#212121" stroke-linecap="round" stroke-linejoin="round"></path><path d="M3.75 12.763L7.5 12.763" fill="none" stroke="#212121" stroke-linecap="round" stroke-linejoin="round"></path><path d="M20.25 12.763L16.5 12.763" fill="none" stroke="#212121" stroke-linecap="round" stroke-linejoin="round"></path><path d="M8.25 17.263L9.75 14.263 14.25 14.263 15.75 17.263" fill="none" stroke="#212121" stroke-linecap="round" stroke-linejoin="round"></path></svg>