<svg xmlns="http://www.w3.org/2000/svg" viewBox="-4 -4 128 128" height="128" width="128"><path fill="none" stroke="#000000" stroke-linecap="round" stroke-linejoin="round" d="M18.73 18.740000000000002a15 15 0 1 0 30 0 15 15 0 1 0 -30 0" stroke-width="8"></path><path d="M60 67.5a26.25 26.25 0 0 0 -52.5 0v11.25h11.25l3.75 37.5H45l3.75 -37.5H60zm18.73 33.745V60H105a7.5 7.5 0 0 1 7.5 7.5v33.75a7.5 7.5 0 0 1 -7.5 7.5h-18.75" fill="none" stroke="#000000" stroke-linecap="round" stroke-linejoin="round" stroke-width="8"></path><path fill="none" stroke="#000000" stroke-linecap="round" stroke-linejoin="round" d="M71.23 108.74000000000001a7.5 7.5 0 1 0 15 0 7.5 7.5 0 1 0 -15 0" stroke-width="8"></path><path fill="none" stroke="#000000" stroke-linecap="round" stroke-linejoin="round" d="M78.73 29.990000000000002v30" stroke-width="8"></path></svg>