<svg xmlns="http://www.w3.org/2000/svg" viewBox="0 0 200 200"><g><path d="M24.855,74.324c-.016.351-.009,21.844-.009,21.944a8.19,8.19,0,0,0,8.347,8.23A8.909,8.909,0,0,1,42,113.833v14.006H61.658c-.005-.279.028-14.548,0-14.927a8.227,8.227,0,0,0-8.2-7.693,8.927,8.927,0,0,1-8.934-9.067V95.08A7.089,7.089,0,0,1,42.982,93.7a7.326,7.326,0,0,1-1.7-5.073v-.4H29.324a.366.366,0,0,1-.361-.362v-13.6a.366.366,0,0,1,.361-.361h11.9a8.21,8.21,0,0,0-16.371.421Zm31.774,48.92H47.971a.362.362,0,0,1,0-.723h8.658a.362.362,0,0,1,0,.723Zm0-2.691H47.971a.362.362,0,0,1,0-.723h8.658a.362.362,0,0,1,0,.723Zm-1.5-11.35a.362.362,0,0,1,0,.723H46.471a.362.362,0,0,1,0-.723Zm-11.157-2.428H52.63a.362.362,0,0,1,0,.723H43.972a.362.362,0,0,1,0-.723Z" fill="#ffffff"></path><path d="M41.226,73.9h-11.9a.366.366,0,0,0-.361.361v13.6a.366.366,0,0,0,.361.362H41.277C41.27,73.487,41.285,74.563,41.226,73.9Zm-1.782,5.979c-1.105,1.142-2.255,2.24-3.371,3.371a.344.344,0,0,1-.529-.044c-.158-.047-.091,0-1.16-1.529-.267-.383.36-.744.624-.365l.814,1.167c1.037-1.037,2.057-2.092,3.111-3.111a.362.362,0,0,1,.511.511Z" fill="#ff4848"></path><path d="M56.33,80.734c-.456,1.273-.4,2.048-.345,8a7.358,7.358,0,0,1-4.173,6.853h15.94V82.866a6.026,6.026,0,0,0-.967-3.371A5.89,5.89,0,0,0,56.33,80.734Z" fill="#ffffff"></path><path d="M100.644,72.336h-14.3a.365.365,0,0,1-.312-.544c.057-.1,11.558-19.851,11.91-20.444a.364.364,0,0,1,.5-.123,32.912,32.912,0,0,1,2.2,3.681s0-5.79,0-7.38a12.428,12.428,0,0,1,1.57-6.03,11.458,11.458,0,0,0-21.249,5.979v65.073a6.562,6.562,0,0,1-3.645,6.176H88.076a12.74,12.74,0,0,1,2.9-15.557,20.517,20.517,0,0,1,9.671-4.961ZM82.107,60.026a27.725,27.725,0,0,1,7.4-8.594.36.36,0,0,1,.494.129.372.372,0,0,1-.129.495,26.959,26.959,0,0,0-7.137,8.334C82.506,60.8,81.882,60.433,82.107,60.026ZM84.2,61.834a27.737,27.737,0,0,1,7.4-8.594.36.36,0,0,1,.494.129.372.372,0,0,1-.129.495A26.959,26.959,0,0,0,84.822,62.2C84.6,62.606,83.973,62.241,84.2,61.834Z" fill="#ffffff"></path><path d="M101.367,72.336h-.723v25.87c.239-.052.482-.092.723-.137Z" fill="#ffd2d2"></path><path d="M98.571,51.348a.365.365,0,0,0-.624,0c-.4.673-11.9,20.432-11.91,20.444a.365.365,0,0,0,.312.544h17.535V60.468C103.792,60.31,98.613,51.419,98.571,51.348Zm-.556,8.8a.362.362,0,0,1,.723,0v5.119a.362.362,0,0,1-.723,0Zm.848,6.867v.875a.362.362,0,0,1-.723,0v-.875a.362.362,0,0,1,.723,0Z" fill="#b6dbff"></path><path d="M90.973,103.167a12.724,12.724,0,0,0-2.9,15.557c4.8,8.987,18.539,11.956,28.462,6.743V100.215C108.581,96.019,97.765,96.906,90.973,103.167Z" fill="#ff9494"></path><path d="M117.26,52.287c0,.453,0,80.794,0,80.794a6.639,6.639,0,0,1-3.7,6.413H130.7a5.968,5.968,0,0,0,6.137-4.834,21.717,21.717,0,0,0,.106-4.1V113.2a8.34,8.34,0,0,1-8.081-8.467c0-.434,0-52.155,0-52.155a5.809,5.809,0,1,0-11.6-.287Z" fill="#ffffff"></path><path d="M145.618,87.507a27.945,27.945,0,0,0-.054,2.941h17.924c0-.81.031-1.632-.013-2.442a8.964,8.964,0,0,0-17.857-.5Z" fill="#ffffff"></path><path d="M145.523,105.567a8.321,8.321,0,0,1-4.958,6.913s16.213.019,17.186,0a7.637,7.637,0,0,0,5.737-2.8v-4.11Z" fill="#ffffff"></path><path d="M141.708,90.448a7.56,7.56,0,0,0-1.926,14.876c1.259.328-.258.243,23.706.243V90.448Z" fill="#13d38d"></path><path d="M184.613,88.557a9.733,9.733,0,0,0-9.747-9.729H154.8a9.873,9.873,0,0,0-4.814,1.162s0-28.179-.034-28.53a6.515,6.515,0,0,0-6.487-5.868h-18.58a12.239,12.239,0,0,0-12.124-10.323H92.671c-.1.034-9.183-.417-11.855,8.478a15.555,15.555,0,0,0-.574,5.216v27.16l-17.837,0a14.612,14.612,0,0,0-.147-3,8.923,8.923,0,0,0-8.8-7.345H33.345a10.307,10.307,0,0,0-3.177.48,8.925,8.925,0,0,0-5.983,7.421c-.088.929-.031-1.022-.061,22.532a8.954,8.954,0,0,0,7.816,8.935c.591.076,1.181.053,1.773.1a8.224,8.224,0,0,1,7.543,7.582c.033.476-.1-.688.021,15.375a.365.365,0,0,0,.361.361h20.4a.367.367,0,0,0,.361-.361s0-14.6,0-14.9a8.934,8.934,0,0,0-8.937-8.806,8.212,8.212,0,0,1-8.215-8.209c0-.016,0-.549,0-.785,2.409,1.235,6.192.809,6.192.809H67.752c0,18.254-.068,16.221.113,17.742a6.587,6.587,0,0,0,6.428,5.38c.1.029-.566.012,14.2.012-.145-.238-.289-.477-.419-.722H77.32a6.6,6.6,0,0,0,3.645-6.176s0-64.076,0-65.073A11.443,11.443,0,0,1,92.751,36a11.6,11.6,0,0,1,9.463,5.5,12.406,12.406,0,0,0-1.57,6.03c0,1.59,0,7.38,0,7.38l.722,1.24c0-9.451-.025-9.035.09-10.158a11.241,11.241,0,0,1,1.175-3.747,12.157,12.157,0,0,1,1.253,5.514V97.73a23.181,23.181,0,0,1,12.654,2.485v25.252a23.28,23.28,0,0,1-12.654,2.49s-.015,3.957,0,5.559a6.762,6.762,0,0,0,6.4,6.694c1.381.062,20.006.008,20.106.006,3.652-.049,5.836-1.679,6.845-4.332a7.451,7.451,0,0,0,.428-2.692V113.215h19.814a8.644,8.644,0,0,0,6.013-2.453v40.747a.366.366,0,0,0,.361.362h20.4a.367.367,0,0,0,.361-.362S184.615,89.441,184.613,88.557ZM53.463,105.219a8.235,8.235,0,0,1,8.2,7.693c.036.614-.019,14.169,0,14.927H42V113.833a8.955,8.955,0,0,0-8.806-9.335,8.214,8.214,0,0,1-8.347-8.23c0-.62-.049-20.654.009-21.944A8.21,8.21,0,0,1,41.226,73.9c.178,2.044-.106,14.588.159,16.343a7.448,7.448,0,0,0,3.144,4.862v1.044A8.932,8.932,0,0,0,53.463,105.219Zm14.289-9.631c-8.892.028-13.367-.008-15.94,0a7.373,7.373,0,0,0,4.173-6.853c-.057-5.745-.113-6.71.345-8A5.9,5.9,0,0,1,66.785,79.5a6.073,6.073,0,0,1,.967,3.371Zm69.081,39.072a6,6,0,0,1-6.137,4.834H113.557a6.7,6.7,0,0,0,3.7-6.413V52.287A5.947,5.947,0,0,1,119,47.97a5.8,5.8,0,0,1,9.624,2.515c.336,1.2.489-3.369.232,54.244a8.368,8.368,0,0,0,8.081,8.467v17.36A21.8,21.8,0,0,1,136.833,134.66Zm20.918-22.181c-.523.009,3.195,0-17.186,0a8.36,8.36,0,0,0,4.958-6.913l-2.907.02c-2.76.019-5.414-.622-7.277-3.479a7.56,7.56,0,0,1,6.369-11.66c.96,0,3.614,0,3.856,0,0-1.4-.03-1.9.054-2.941a8.964,8.964,0,0,1,17.857.5c.023.443.013-.658.013,21.671A7.664,7.664,0,0,1,157.751,112.479Z" fill="#ffd2d2"></path><path d="M56.629,122.521H47.971a.362.362,0,0,0,0,.723h8.658a.362.362,0,0,0,0-.723Z" fill="#ff9494"></path><path d="M47.971,120.553h8.658a.362.362,0,0,0,0-.723H47.971a.362.362,0,0,0,0,.723Z" fill="#ff9494"></path><path d="M46.471,109.926h8.658a.362.362,0,0,0,0-.723H46.471a.362.362,0,0,0,0,.723Z" fill="#ff9494"></path><path d="M43.972,107.5H52.63a.362.362,0,0,0,0-.723H43.972a.362.362,0,0,0,0,.723Z" fill="#ff9494"></path><path d="M61.707,132.351a.362.362,0,0,0,0-.723H41.644A.362.362,0,0,0,41.3,132a.358.358,0,0,0,.348.349C48.454,132.468,55.843,132.452,61.707,132.351Z" fill="#ff9494"></path><path d="M41.644,134.805H61.707a.362.362,0,0,0,0-.723H41.644a.362.362,0,0,0,0,.723Z" fill="#ff9494"></path><path d="M184.2,164.008H164.141a.362.362,0,0,0,0,.723H184.2a.362.362,0,0,0,0-.723Z" fill="#78b5ff"></path><path d="M184.2,161.3H164.141a.362.362,0,0,0,0,.723H184.2a.362.362,0,0,0,0-.723Z" fill="#78b5ff"></path><path d="M62.039,137.237a.326.326,0,0,0-.332-.259H41.644c-.34,0-.516.513-.182.673,1.148.552,9.622,4.659,10.022,4.819.338.136.8-.2,1.107-.348,5.654-2.718-8.582,3.551,9.254-4.45A.31.31,0,0,0,62.039,137.237Z" fill="#ff9494"></path><path d="M184.386,158.523c-1.431-.681-9.628-4.661-10.022-4.819-.338-.136-.805.2-1.107.348-7.851,3.775,4.73-2.282-9.3,4.471-.333.16-.159.673.182.673H184.2a.327.327,0,0,0,.332-.258A.3.3,0,0,0,184.386,158.523Z" fill="#78b5ff"></path><path d="M182.052,62.02v9.24a.362.362,0,0,0,.723,0V62.02a.362.362,0,0,0-.723,0Z" fill="#000001"></path><path d="M191.4,65.51q-3.681,3.559-7.242,7.243a.362.362,0,0,0,.511.511q3.681-3.561,7.243-7.243a.362.362,0,0,0-.512-.511Z" fill="#000001"></path><path d="M194.651,74.645h-7.992a.362.362,0,0,0,0,.723h7.992a.362.362,0,0,0,0-.723Z" fill="#000001"></path><path d="M16.338,89.13H5.349a.361.361,0,0,0,0,.722H16.338a.361.361,0,0,0,0-.722Z" fill="#000001"></path><path d="M16.831,87.249a.362.362,0,0,0,.511-.511Q14.275,83.564,11.1,80.5a.362.362,0,0,0-.511.511Q13.656,84.18,16.831,87.249Z" fill="#000001"></path><path d="M17.081,91.733l-5.994,5.994a.362.362,0,0,0,.511.511l5.994-5.994a.362.362,0,0,0-.511-.511Z" fill="#000001"></path><path d="M91.913,128.246a23.832,23.832,0,0,1-3.9,4.454c-.347.31.165.82.511.511a24.559,24.559,0,0,0,4.011-4.6C92.8,128.224,92.172,127.862,91.913,128.246Z" fill="#000001"></path><path d="M93.1,129.59q-.618,3-1.237,6c-.094.454.6.648.7.193q.618-3,1.237-6C93.889,129.329,93.192,129.135,93.1,129.59Z" fill="#000001"></path><path d="M90.064,128.111a45.179,45.179,0,0,1-6.124,2.547c-.439.146-.251.845.192.7a46.5,46.5,0,0,0,6.3-2.62C90.844,128.526,90.479,127.9,90.064,128.111Z" fill="#000001"></path><path d="M91.959,53.864a.372.372,0,0,0,.129-.495.36.36,0,0,0-.494-.129,27.737,27.737,0,0,0-7.4,8.594c-.225.407.4.772.624.364A26.959,26.959,0,0,1,91.959,53.864Z" fill="#000001"></path><path d="M89.868,52.056A.372.372,0,0,0,90,51.561a.36.36,0,0,0-.494-.129,27.725,27.725,0,0,0-7.4,8.594c-.225.407.4.772.624.364A26.959,26.959,0,0,1,89.868,52.056Z" fill="#000001"></path><path d="M157.278,97.428c-1.68-.366-2.271,2.409-3.391,2.1-.509-.139-.775-.812-1.051-1.205a1.993,1.993,0,0,0-1.569-1c-1.99.143-2.451,1.917-3.7,2.607-1.649.907-2.7-1.892-4.544-1.618a1.42,1.42,0,0,0-1.252,1.711c.143.441.841.252.7-.192-.158-.654.729-1.027,1.368-.671.721.33,1.239.971,1.924,1.362a2.214,2.214,0,0,0,2.1.072,5.684,5.684,0,0,0,1.594-1.437,2.632,2.632,0,0,1,1.822-1.111c.583.023.9.56,1.181,1a2.516,2.516,0,0,0,1.156,1.15,1.433,1.433,0,0,0,1.357-.245,6.42,6.42,0,0,0,1.1-1.207c.248-.294.588-.717,1.022-.623C157.539,98.223,157.733,97.527,157.278,97.428Z" fill="#000001"></path><path d="M107.36,114.516c.017.654-.009,1.833-.709,2.17a.91.91,0,0,1-1.1-.392,2.951,2.951,0,0,1-.371-1.746.361.361,0,0,0-.722,0,3.6,3.6,0,0,0,.552,2.222,1.6,1.6,0,0,0,1.74.65c1.175-.322,1.365-1.876,1.334-2.9a.362.362,0,0,0-.723,0Z" fill="#000001"></path><path d="M38.933,79.371c-1.054,1.02-2.074,2.074-3.111,3.111l-.814-1.167c-.264-.379-.891-.018-.624.365.986,1.414.988,1.477,1.16,1.529a.343.343,0,0,0,.477.088c.07-.048,3-2.974,3.423-3.415a.362.362,0,0,0-.511-.511Z" fill="#000001"></path><path d="M108.681,113.393h.832a.362.362,0,0,0,0-.723h-.832a.362.362,0,0,0,0,.723Z" fill="#000001"></path><path d="M103.676,112.67h-.832a.362.362,0,0,0,0,.723h.832a.362.362,0,0,0,0-.723Z" fill="#000001"></path><path d="M98.738,65.266V60.147a.362.362,0,0,0-.723,0v5.119a.362.362,0,0,0,.723,0Z" fill="#000001"></path><path d="M98.14,67.014v.875a.362.362,0,0,0,.723,0v-.875a.362.362,0,0,0-.723,0Z" fill="#000001"></path><path d="M47.8,83.368h7.461q0-.362.005-.723H47.8a.362.362,0,0,0,0,.723Z" fill="#ff9494"></path><path d="M47.8,80.676h7.793a6.688,6.688,0,0,1,.286-.722H47.8a.361.361,0,0,0,0,.722Z" fill="#ff9494"></path><path d="M56.459,75.015H47.8a.362.362,0,0,0,0,.723h8.658a.362.362,0,0,0,0-.723Z" fill="#ff9494"></path><path d="M55.959,72.018H47.3a.362.362,0,0,0,0,.723h8.658a.362.362,0,0,0,0-.723Z" fill="#ff9494"></path><path d="M54.959,69.327H46.3a.362.362,0,0,0,0,.723h8.658a.362.362,0,0,0,0-.723Z" fill="#ff9494"></path><path d="M73.592,113.191h6.626a5.718,5.718,0,0,0,.024-.723h-6.65a.362.362,0,0,0,0,.723Z" fill="#ff9494"></path><path d="M73.592,110.277h6.65v-.722h-6.65a.361.361,0,0,0,0,.722Z" fill="#ff9494"></path><path d="M73.592,91.859h6.65v-.723h-6.65a.362.362,0,0,0,0,.723Z" fill="#ff9494"></path><path d="M73.592,89.168h6.65v-.723h-6.65a.362.362,0,0,0,0,.723Z" fill="#ff9494"></path><path d="M73.592,84.229h6.65v-.723h-6.65a.362.362,0,0,0,0,.723Z" fill="#ff9494"></path><path d="M73.092,81.232h7.15V80.51h-7.15a.361.361,0,0,0,0,.722Z" fill="#ff9494"></path><path d="M135.545,88.456H144.2a.362.362,0,0,0,0-.723h-8.658a.362.362,0,0,0,0,.723Z" fill="#ff9494"></path><path d="M135.545,85.459H144.2a.362.362,0,0,0,0-.723h-8.658a.362.362,0,0,0,0,.723Z" fill="#ff9494"></path><path d="M135.545,82.768H144.2a.362.362,0,0,0,0-.723h-8.658a.362.362,0,0,0,0,.723Z" fill="#ff9494"></path><path d="M135.545,75.355H144.2a.361.361,0,0,0,0-.722h-8.658a.361.361,0,0,0,0,.722Z" fill="#ff9494"></path><path d="M135.545,72.358H144.2a.361.361,0,0,0,0-.722h-8.658a.361.361,0,0,0,0,.722Z" fill="#ff9494"></path><path d="M135.545,61.541H144.2a.362.362,0,0,0,0-.723h-8.658a.362.362,0,0,0,0,.723Z" fill="#ff9494"></path><path d="M135.545,58.544H144.2a.362.362,0,0,0,0-.723h-8.658a.362.362,0,0,0,0,.723Z" fill="#ff9494"></path><path d="M178.5,136.83h-8.657a.361.361,0,0,0,0,.722H178.5a.361.361,0,0,0,0-.722Z" fill="#ff9494"></path><path d="M178.5,133.916h-8.657a.362.362,0,0,0,0,.723H178.5a.362.362,0,0,0,0-.723Z" fill="#ff9494"></path><path d="M178.5,94.983h-8.657a.362.362,0,0,0,0,.723H178.5a.362.362,0,0,0,0-.723Z" fill="#ff9494"></path><path d="M178.5,92.292h-8.657a.362.362,0,0,0,0,.723H178.5a.362.362,0,0,0,0-.723Z" fill="#ff9494"></path><path d="M178.5,89.379h-8.657a.361.361,0,0,0,0,.722H178.5a.361.361,0,0,0,0-.722Z" fill="#ff9494"></path><path d="M178.5,86.382h-8.657a.361.361,0,0,0,0,.722H178.5a.361.361,0,0,0,0-.722Z" fill="#ff9494"></path><path d="M178.5,116.226h-8.657a.362.362,0,0,0,0,.723H178.5a.362.362,0,0,0,0-.723Z" fill="#ff9494"></path><path d="M178.5,113.229h-8.657a.362.362,0,0,0,0,.723H178.5a.362.362,0,0,0,0-.723Z" fill="#ff9494"></path><path d="M178.5,107.624h-8.657a.362.362,0,0,0,0,.723H178.5a.362.362,0,0,0,0-.723Z" fill="#ff9494"></path><path d="M178.5,104.628h-8.657a.361.361,0,0,0,0,.722H178.5a.361.361,0,0,0,0-.722Z" fill="#ff9494"></path><path d="M177,83.052h-8.657a.361.361,0,0,0,0,.722H177a.361.361,0,0,0,0-.722Z" fill="#ff9494"></path><path d="M174.5,80.555h-8.657a.362.362,0,0,0,0,.723H174.5a.362.362,0,0,0,0-.723Z" fill="#ff9494"></path><path d="M109.793,91.405h6.745v-.722h-6.745a.361.361,0,0,0,0,.722Z" fill="#ff9494"></path><path d="M109.793,88.408h6.745v-.722h-6.745a.361.361,0,0,0,0,.722Z" fill="#ff9494"></path><path d="M109.793,85.717h6.745v-.723h-6.745a.362.362,0,0,0,0,.723Z" fill="#ff9494"></path><path d="M109.793,75.609h6.745v-.722h-6.745a.361.361,0,0,0,0,.722Z" fill="#ff9494"></path><path d="M109.793,72.7h6.745v-.723h-6.745a.362.362,0,0,0,0,.723Z" fill="#ff9494"></path><path d="M109.793,69.7h6.745v-.723h-6.745a.362.362,0,0,0,0,.723Z" fill="#ff9494"></path><path d="M109.793,67.008h6.745v-.723h-6.745a.362.362,0,0,0,0,.723Z" fill="#ff9494"></path><path d="M118.45,45.925h-8.657a.362.362,0,0,0,0,.723h8.657a.362.362,0,1,0,0-.723Z" fill="#ff9494"></path><path d="M117.951,42.928h-8.658a.362.362,0,0,0,0,.723h8.658a.362.362,0,0,0,0-.723Z" fill="#ff9494"></path><path d="M116.951,40.237h-8.658a.361.361,0,0,0,0,.722h8.658a.362.362,0,0,0,0-.722Z" fill="#ff9494"></path><path d="M114.451,37.808h-8.657a.362.362,0,0,0,0,.723h8.657A.367.367,0,0,0,114.451,37.808Z" fill="#ff9494"></path><path d="M109.793,133.1h6.745v-.723h-6.745a.362.362,0,0,0,0,.723Z" fill="#000001"></path><path d="M109.793,130.185h6.745v-.723h-6.745a.362.362,0,0,0,0,.723Z" fill="#000001"></path></g><g><path d="M47.452,75.389a.362.362,0,0,0,.349.349h8.658a.362.362,0,0,0,0-.723H47.8A.361.361,0,0,0,47.452,75.389Z" fill="#000001"></path><path d="M56.307,72.367a.361.361,0,0,0-.348-.349H47.3a.362.362,0,0,0,0,.723h8.658A.361.361,0,0,0,56.307,72.367Z" fill="#000001"></path><path d="M55.308,69.676a.361.361,0,0,0-.349-.349H46.3a.362.362,0,0,0,0,.723h8.657A.363.363,0,0,0,55.308,69.676Z" fill="#000001"></path><path d="M109.444,46.3a.36.36,0,0,0,.349.348h8.657a.361.361,0,1,0,0-.722h-8.657A.362.362,0,0,0,109.444,46.3Z" fill="#000001"></path><path d="M108.944,43.3a.362.362,0,0,0,.349.349h8.657a.362.362,0,0,0,0-.723h-8.657A.362.362,0,0,0,108.944,43.3Z" fill="#000001"></path><path d="M107.945,40.611a.36.36,0,0,0,.348.348h8.658a.362.362,0,0,0,0-.722h-8.658A.36.36,0,0,0,107.945,40.611Z" fill="#000001"></path><path d="M105.794,38.531h8.657a.367.367,0,0,0,0-.722h-8.657a.361.361,0,0,0,0,.722Z" fill="#000001"></path><path d="M184.613,88.557a9.732,9.732,0,0,0-9.747-9.729h-20.4a9.722,9.722,0,0,0-4.482,1.163s0-28.18-.034-28.531a6.516,6.516,0,0,0-6.487-5.868H124.844A12.124,12.124,0,0,0,112.85,35.274c-.1-.02.5,0-20.032,0a12.15,12.15,0,0,0-12,8.477,15.555,15.555,0,0,0-.574,5.216v27.16H62.4a13.989,13.989,0,0,0-.144-3,8.911,8.911,0,0,0-8.8-7.345c-14.844-.045-18.893-.035-20.02-.014-5.365.1-8.763,3.635-9.258,7.915-.088.929-.031-1.022-.061,22.532a8.953,8.953,0,0,0,7.816,8.935c1.111.142,3.705-.22,6.329,1.932a8.269,8.269,0,0,1,2.987,5.747c.033.476-.1-.688.021,15.375a.365.365,0,0,0,.361.361h20.4a.367.367,0,0,0,.361-.361s0-14.6,0-14.9a8.935,8.935,0,0,0-8.937-8.806,8.212,8.212,0,0,1-8.215-8.209c0-.014,0-.495,0-.785a7.591,7.591,0,0,0,3.341.835c.047.012,19.11-.051,19.159-.051,0,18.077-.059,16.325.113,17.767a6.579,6.579,0,0,0,6.412,5.376c.1.032-.509.016,14.218.016,2.737,4.568,8.578,8,15.389,8.51,0,0-.015,3.958,0,5.56a6.762,6.762,0,0,0,6.4,6.694c.1,0,20.687.031,20.812-.018a6.66,6.66,0,0,0,6.567-7V113.215c.085,0,19.99,0,20.07-.028a8.54,8.54,0,0,0,5.757-2.424v40.746a.366.366,0,0,0,.361.362h20.4a.367.367,0,0,0,.361-.362S184.615,89.441,184.613,88.557Zm-67.669-51.8a11.51,11.51,0,0,1,7.183,8.84h-1.068a6.531,6.531,0,0,0-6.359,5.075c-.232,1.069-.163.591-.163,15.618h-6.744a.361.361,0,0,0,0,.722h6.744v1.969h-6.744a.362.362,0,0,0,0,.723h6.744v2.274h-6.744a.362.362,0,0,0,0,.723h6.744v2.191h-6.744a.361.361,0,0,0,0,.722h6.744v9.385h-6.744a.362.362,0,0,0,0,.723h6.744v1.968h-6.744a.362.362,0,0,0,0,.723h6.744v2.275h-6.744a.361.361,0,0,0,0,.722h6.744v8.81a23.076,23.076,0,0,0-11.93-2.533c0-54.632.06-50.491-.139-52.06a12.221,12.221,0,0,0-7.918-9.63C113.273,35.992,114.409,35.785,116.944,36.752Zm-15.488,9.236a11.221,11.221,0,0,1,1.173-3.744,12.061,12.061,0,0,1,1.255,5.511V60.468c-.29-.5-1.969-3.38-2.518-4.322C101.366,46.7,101.341,47.111,101.456,45.988ZM103.884,61.9v9.71c-11.582,0-16.5.007-16.9-.011.286-.49,11.219-19.244,11.282-19.342Zm-2.518,10.433h2.518c0,23.032-.034,25.233.021,25.393a24.463,24.463,0,0,0-2.539.34Zm-47.9,32.883a8.236,8.236,0,0,1,8.2,7.693c.047.8-.007,14.824,0,14.927H42V113.833a8.955,8.955,0,0,0-8.806-9.335,8.212,8.212,0,0,1-8.347-8.23c0-.62-.049-20.654.009-21.944A8.21,8.21,0,0,1,41.226,73.9h-11.9a.367.367,0,0,0-.361.361v13.6a.367.367,0,0,0,.361.361H41.277a11.541,11.541,0,0,0,.108,2.024,7.276,7.276,0,0,0,3.144,4.833v1.073A8.933,8.933,0,0,0,53.463,105.219Zm-12.2-30.594c.015.717.01-1.271.01,12.874H29.685V74.625Zm7.395,21A6.642,6.642,0,0,1,42,88.835s.006-14.144-.006-14.457A8.9,8.9,0,0,0,36.554,66.5H53.463a8.188,8.188,0,0,1,7.94,6.1,11.642,11.642,0,0,1,.27,3.537,6.625,6.625,0,0,0-5.793,3.819H47.8a.361.361,0,0,0,0,.722H55.6a6.443,6.443,0,0,0-.328,1.969H47.8a.362.362,0,0,0,0,.723h7.461c0,.041,0,5.266,0,5.623A6.625,6.625,0,0,1,48.662,95.621Zm19.09-12.755V95.588H51.812a7.372,7.372,0,0,0,4.173-6.853c-.057-5.745-.113-6.71.345-8a5.886,5.886,0,0,1,11.422,2.132ZM74.4,118.722a5.889,5.889,0,0,1-5.922-6.078V83.183a6.653,6.653,0,0,0-3.609-6.334l15.376-.006V80.51h-7.15a.361.361,0,0,0,0,.722h7.15v2.275h-6.65a.361.361,0,0,0,0,.722h6.65v4.216h-6.65a.362.362,0,0,0,0,.723h6.65v1.968h-6.65a.362.362,0,0,0,0,.723h6.65v17.7h-6.65a.361.361,0,0,0,0,.722h6.65v2.191h-6.65a.362.362,0,0,0,0,.723h6.626A5.83,5.83,0,0,1,74.4,118.722Zm2.923,0a6.6,6.6,0,0,0,3.645-6.176s0-64.076,0-65.072c-.038-11.365,15.088-15.984,21.247-5.977a12.415,12.415,0,0,0-1.568,6.027c0,1.581,0,7.38,0,7.38-.281-.485-1.161-1.993-2.072-3.558a.365.365,0,0,0-.624,0L86.037,71.792a.365.365,0,0,0,.312.544h14.3v25.87a20.261,20.261,0,0,0-9.671,4.961,12.791,12.791,0,0,0-2.9,15.557Zm10.027-4.742c-.695-6.718,4.679-12.265,10.835-14.328a22.886,22.886,0,0,1,18.355,1.381v23.61C104.707,131.185,88.5,125.092,87.347,113.982ZM105.289,136.3c-.964-1.822-.682-4.2-.682-6.208V128a22.948,22.948,0,0,0,11.93-2.53v4h-6.744a.362.362,0,0,0,0,.723h6.744v2.191h-6.744a.362.362,0,0,0,0,.723h6.744c0,.095,0,.189,0,.284a6.1,6.1,0,0,1-1.969,4.575A5.974,5.974,0,0,1,105.289,136.3Zm31.544-1.641a6,6,0,0,1-6.137,4.834H113.557a6.7,6.7,0,0,0,3.7-6.413V52.287A5.942,5.942,0,0,1,119,47.97a5.808,5.808,0,0,1,9.624,2.515c.336,1.2.49-3.369.232,54.244a8.368,8.368,0,0,0,8.081,8.467v17.36A21.8,21.8,0,0,1,136.833,134.66Zm-7.252-29.813c0-.277,0-52.414,0-52.722a6.535,6.535,0,0,0-3.569-5.811h17.449a5.821,5.821,0,0,1,5.8,5.961V80.419a9.721,9.721,0,0,0-3.82,4.738,14.516,14.516,0,0,0-.6,5.291c-1.043,0-2.087,0-3.13,0a7.561,7.561,0,0,0-1.926,14.876,20.854,20.854,0,0,0,5.016.243,7.625,7.625,0,0,1-15.217-.72Zm33.908,4.83a7.668,7.668,0,0,1-5.738,2.8c-.523.009,3.195,0-17.186,0a8.359,8.359,0,0,0,4.958-6.913h17.966Zm0-4.833H141.771a6.838,6.838,0,0,1-1.157-13.591c.9-.118-.806-.082,22.875-.082Zm0-14.4H145.564c0-1.4-.03-1.9.053-2.939a8.965,8.965,0,0,1,17.858.5C163.518,88.816,163.489,89.636,163.489,90.446Zm20.393,60.7H164.211s0-61.721,0-62.6a9.8,9.8,0,0,0-6.032-9h16.687a8.964,8.964,0,0,1,9.016,8.556C183.909,88.755,183.832,150.018,183.882,151.148Z" fill="#000001"></path><path d="M178.5,136.83h-8.657a.361.361,0,0,0,0,.722H178.5a.361.361,0,0,0,0-.722Z" fill="#000001"></path><path d="M178.5,133.916h-8.657a.362.362,0,0,0,0,.723H178.5a.362.362,0,0,0,0-.723Z" fill="#000001"></path><path d="M178.5,94.983h-8.657a.362.362,0,0,0,0,.723H178.5a.362.362,0,0,0,0-.723Z" fill="#000001"></path><path d="M178.5,92.292h-8.657a.362.362,0,0,0,0,.723H178.5a.362.362,0,0,0,0-.723Z" fill="#000001"></path><path d="M178.5,89.379h-8.657a.361.361,0,0,0,0,.722H178.5a.361.361,0,0,0,0-.722Z" fill="#000001"></path><path d="M178.5,86.382h-8.657a.361.361,0,0,0,0,.722H178.5a.361.361,0,0,0,0-.722Z" fill="#000001"></path><path d="M56.629,122.521H47.971a.362.362,0,0,0,0,.723h8.658a.362.362,0,0,0,0-.723Z" fill="#000001"></path><path d="M47.622,120.2a.362.362,0,0,0,.349.349h8.658a.362.362,0,0,0,0-.723H47.971A.363.363,0,0,0,47.622,120.2Z" fill="#000001"></path><path d="M46.123,109.577a.361.361,0,0,0,.348.349h8.658a.361.361,0,0,0,0-.722H46.471A.36.36,0,0,0,46.123,109.577Z" fill="#000001"></path><path d="M43.623,107.149a.362.362,0,0,0,.349.349H52.63a.362.362,0,0,0,0-.723H43.972A.362.362,0,0,0,43.623,107.149Z" fill="#000001"></path><path d="M178.5,116.226h-8.657a.362.362,0,0,0,0,.723H178.5a.362.362,0,0,0,0-.723Z" fill="#000001"></path><path d="M178.5,113.229h-8.657a.362.362,0,0,0,0,.723H178.5a.362.362,0,0,0,0-.723Z" fill="#000001"></path><path d="M178.5,107.624h-8.657a.362.362,0,0,0,0,.723H178.5a.362.362,0,0,0,0-.723Z" fill="#000001"></path><path d="M178.5,104.628h-8.657a.361.361,0,0,0,0,.722H178.5a.361.361,0,0,0,0-.722Z" fill="#000001"></path><path d="M177.35,83.4a.361.361,0,0,0-.348-.349h-8.658a.361.361,0,0,0,0,.722H177A.36.36,0,0,0,177.35,83.4Z" fill="#000001"></path><path d="M174.851,80.9a.361.361,0,0,0-.349-.349h-8.657a.362.362,0,0,0,0,.723H174.5A.362.362,0,0,0,174.851,80.9Z" fill="#000001"></path><path d="M135.545,88.456H144.2a.362.362,0,0,0,0-.723h-8.658a.362.362,0,0,0,0,.723Z" fill="#000001"></path><path d="M135.545,85.459H144.2a.362.362,0,0,0,0-.723h-8.658a.362.362,0,0,0,0,.723Z" fill="#000001"></path><path d="M135.545,82.768H144.2a.362.362,0,0,0,0-.723h-8.658a.362.362,0,0,0,0,.723Z" fill="#000001"></path><path d="M135.545,75.355H144.2a.361.361,0,0,0,0-.722h-8.658a.361.361,0,0,0,0,.722Z" fill="#000001"></path><path d="M135.545,72.358H144.2a.361.361,0,0,0,0-.722h-8.658a.361.361,0,0,0,0,.722Z" fill="#000001"></path><path d="M135.545,61.541H144.2a.362.362,0,0,0,0-.723h-8.658a.362.362,0,0,0,0,.723Z" fill="#000001"></path><path d="M135.545,58.544H144.2a.362.362,0,0,0,0-.723h-8.658a.362.362,0,0,0,0,.723Z" fill="#000001"></path><path d="M41.644,132.351H61.707a.362.362,0,0,0,0-.723H41.644a.362.362,0,0,0,0,.723Z" fill="#000001"></path><path d="M41.644,134.805H61.707a.362.362,0,0,0,0-.723H41.644a.362.362,0,0,0,0,.723Z" fill="#000001"></path><path d="M184.2,164.008H164.141a.362.362,0,0,0,0,.723H184.2a.362.362,0,0,0,0-.723Z" fill="#000001"></path><path d="M184.2,161.3H164.141a.362.362,0,0,0,0,.723H184.2a.362.362,0,0,0,0-.723Z" fill="#000001"></path><path d="M61.707,136.978H41.644c-.34,0-.515.513-.182.673,1.148.552,9.622,4.659,10.022,4.819.338.136.8-.2,1.107-.348,4.244-2.042,7-3.43,9.254-4.449A.362.362,0,0,0,61.707,136.978Zm-10.031,4.785L43.227,137.7h16.9Z" fill="#000001"></path><path d="M184.409,158.534c-.169-.089-9.7-4.691-10.045-4.83s-.805.2-1.107.348c-.136.065-4.5,2.176-9.3,4.471-.333.16-.158.673.182.673H184.2a.327.327,0,0,0,.332-.258A.3.3,0,0,0,184.409,158.534Zm-18.685-.06,8.448-4.062,8.449,4.062Z" fill="#000001"></path><path d="M182.427,71.609a.362.362,0,0,0,.348-.349V62.02a.361.361,0,0,0-.722,0v9.24A.361.361,0,0,0,182.427,71.609Z" fill="#000001"></path><path d="M191.892,65.51a.36.36,0,0,0-.494,0q-3.682,3.558-7.242,7.243a.362.362,0,0,0,.511.511l7.242-7.243A.361.361,0,0,0,191.892,65.51Z" fill="#000001"></path><path d="M194.651,74.645h-7.992a.362.362,0,0,0,0,.723h7.992a.362.362,0,0,0,0-.723Z" fill="#000001"></path><path d="M16.686,89.478a.36.36,0,0,0-.348-.348H5.349a.361.361,0,0,0,0,.722H16.338A.361.361,0,0,0,16.686,89.478Z" fill="#000001"></path><path d="M16.831,87.249a.362.362,0,0,0,.512-.511Q14.277,83.561,11.1,80.5a.362.362,0,0,0-.511.511Q13.656,84.18,16.831,87.249Z" fill="#000001"></path><path d="M17.081,91.733l-5.994,5.993a.362.362,0,0,0,.511.511l5.994-5.993a.362.362,0,0,0-.511-.511Z" fill="#000001"></path><path d="M91.97,128.173,88.015,132.7c-.3.349.2.862.512.511l3.954-4.527C92.785,128.335,92.276,127.822,91.97,128.173Z" fill="#000001"></path><path d="M93.1,129.591q-.618,3-1.237,6c-.094.454.6.648.7.192q.618-3,1.237-6C93.889,129.329,93.193,129.135,93.1,129.591Z" fill="#000001"></path><path d="M90.151,128.075l-6.211,2.583c-.423.176-.237.876.193.7l6.21-2.583C90.766,128.6,90.58,127.9,90.151,128.075Z" fill="#000001"></path><path d="M84.2,61.834c-.225.407.4.772.624.364a27.414,27.414,0,0,1,7.137-8.334.372.372,0,0,0,.129-.495.36.36,0,0,0-.494-.129A27.774,27.774,0,0,0,84.2,61.834Z" fill="#000001"></path><path d="M82.731,60.39a27.435,27.435,0,0,1,7.137-8.334A.371.371,0,0,0,90,51.561a.36.36,0,0,0-.494-.129,27.763,27.763,0,0,0-7.4,8.594C81.882,60.433,82.506,60.8,82.731,60.39Z" fill="#000001"></path><path d="M143.018,98.316a1.42,1.42,0,0,0-1.252,1.711.362.362,0,0,0,.7-.192c-.149-.679.748-1.017,1.368-.671.635.308.983.766,1.924,1.362a2.186,2.186,0,0,0,2.1.072c1.763-1.066,1.828-2.425,3.415-2.548.568.047.859.469,1.182,1,.489.994,1.608,1.656,2.513.906a6.457,6.457,0,0,0,1.1-1.208c.247-.294.588-.717,1.022-.623.453.1.647-.6.192-.7-1.129-.208-1.613.741-2.343,1.563-.261.3-.614.66-1.048.541-.955-.261-.865-2.061-2.62-2.2A3.682,3.682,0,0,0,148.619,99c-1.176,1.4-1.972,1.395-3.149.45A3.353,3.353,0,0,0,143.018,98.316Z" fill="#000001"></path><path d="M106.749,117.42c1.175-.322,1.36-1.876,1.334-2.9a.362.362,0,0,0-.723,0c.017.655-.01,1.834-.709,2.17a.914.914,0,0,1-1.1-.392,3,3,0,0,1-.372-1.746.361.361,0,0,0-.722,0,3.593,3.593,0,0,0,.553,2.222A1.6,1.6,0,0,0,106.749,117.42Z" fill="#000001"></path><path d="M35.544,83.208a.343.343,0,0,0,.477.089c.106-.073,2.877-2.85,3.423-3.415a.362.362,0,0,0-.511-.511l-3.111,3.111-.814-1.167c-.264-.379-.891-.018-.624.365C35.459,83.221,35.387,83.162,35.544,83.208Z" fill="#000001"></path><path d="M108.681,113.393h.832a.362.362,0,0,0,0-.723h-.832a.362.362,0,0,0,0,.723Z" fill="#000001"></path><path d="M103.677,112.67h-.833a.362.362,0,0,0,0,.723h.833a.362.362,0,0,0,0-.723Z" fill="#000001"></path><path d="M98.738,65.266V60.147a.362.362,0,0,0-.723,0v5.119a.362.362,0,0,0,.723,0Z" fill="#000001"></path><path d="M98.489,66.666a.362.362,0,0,0-.349.349v.874a.362.362,0,0,0,.723,0v-.874A.362.362,0,0,0,98.489,66.666Z" fill="#000001"></path></g></svg>