<svg xmlns="http://www.w3.org/2000/svg" viewBox="0 0 200 200"><g><path d="M46.188,57.582h-.934q-.642,1.092-1.257,2.2h.919Q45.539,58.674,46.188,57.582Z" fill="#ff5555"></path><path d="M48.266,54.241h-.954Q46.5,55.5,45.728,56.78h.94Q47.447,55.5,48.266,54.241Z" fill="#ff5555"></path><path d="M95.516,39.439c.319,4.159-.592,8.3-1.549,12.325a123.317,123.317,0,0,1-4.741,15.412c.253.08.5.167.76.238a111.951,111.951,0,0,0,6.095-22.2c.523-3.636.555-7.569-1.013-10.972a11.221,11.221,0,0,0-8.411-6.318C73.939,25.819,59.1,38.087,51.274,48.59v1.326C69.214,25.506,94.167,21.878,95.516,39.439Z" fill="#ff5555"></path><path d="M194.914,149.6a4.769,4.769,0,0,0-3.431-4.518.386.386,0,0,0-.068,0,.223.223,0,0,0-.039-.013c-2.387-.319-4.665,1.433-6.465,3.05,2.328-3.391,4.638-6.808,6.654-10.372,2.468-4.364,4.223-9.774,2.121-14.645-1.8-4.18-6.229-6.365-10.619-6.527-5.03-.186-9.662,2.334-13.463,5.411a60.276,60.276,0,0,0-8.639,8.592q3.438-6.293,6.267-12.893c1.177-2.754,2.426-5.747,1.787-8.8a5.808,5.808,0,0,0-4.867-4.842c-2.612-.312-4.831.964-6.739,2.6,1.688-3.036,3.222-6.435,2.777-9.826-.526-4.016-3.7-7.276-7.937-6.37a8.433,8.433,0,0,0-3.04,1.325,217.314,217.314,0,0,0,14.938-22.935c4.28-7.61,7.44-17.052,2.413-25.111a12.8,12.8,0,0,0-8.767-6.194c-4.627-.669-9.188,1.626-13.127,3.785-15.3,8.386-26.148,22.961-35.306,37.849,1.1-3.877,1.06-8.036-1.5-11.429-3.451-4.58-11.191-5.381-16.908-.087.331.077.663.149,1,.21,6.35-5.7,16.942-3.609,17.294,6.557a18.1,18.1,0,0,1-2.582,9.2.4.4,0,0,0,.692.405c9.034-14.709,18.886-29.915,33.585-39.53,3.715-2.431,7.89-4.85,12.238-5.909a11.232,11.232,0,0,1,11.14,3.485A16.449,16.449,0,0,1,168.4,52.644c.074,4.865-1.685,9.557-3.882,13.822-4.281,8.308-13.188,21.218-18.777,28.666-.271.36.344.839.63.485,1.772-2.191,3.991-4.33,6.968-4.516a5.586,5.586,0,0,1,5.525,3.763c1.9,4.721-1.254,9.76-3.519,13.775a.4.4,0,0,0,.63.486c2.054-2.024,4.366-4.325,7.449-4.323,2.988,0,4.8,2.556,4.961,5.343.174,3.026-1.327,5.987-2.513,8.681a148.536,148.536,0,0,1-8.935,17.16c-.27.445.407.829.692.4a66.245,66.245,0,0,1,10.378-11.967c3.626-3.305,8-6.441,13.02-6.977,4.211-.45,9,1.022,11.311,4.785,2.828,4.6,1.174,10.314-1.226,14.688-1.686,3.071-4.423,7.064-10.131,15.533-.25.372.352.849.63.485a31.322,31.322,0,0,1,4.1-4.477c1.5-1.33,3.465-2.834,5.585-2.595,2.428.545,3.194,3.44,2.643,5.592-.682,2.662-2.679,4.993-4.194,7.231-2.5,3.688-5.146,7.509-6.61,11.757v2.606h.1c1.319-5.935,5.214-11.01,8.549-15.958C193.274,154.884,195.142,152.423,194.914,149.6Z" fill="#ff5555"></path><path d="M51.274,60.181a.406.406,0,0,0-.4-.4c-38.365-.275-36.665-.076-36.831.144-.158.168-.1-4.969-.1,113.127H51.274Z" fill="#43f7b2"></path><path d="M96.267,85.649a.4.4,0,0,0-.4-.4c-38.365-.272-36.666-.076-36.831.144-.155.164-.1-3.749-.1,87.659H96.4C96.4,167.675,96.3,90.223,96.267,85.649Z" fill="#13d38d"></path><path d="M139.125,122.227c-38.376-.274-36.662-.076-36.83.145-.155.164-.1-3.426-.1,50.679h37.331V122.628A.406.406,0,0,0,139.125,122.227Z" fill="#ffc431"></path><path d="M182.735,158.048c-4.754-.034-33.84-.038-36.529-.057a.369.369,0,0,0-.255.1c-.223.151-.146-.154-.146,14.961h17.948v-4.945a.4.4,0,0,1,.8,0v4.945h18.581v-14.6A.406.406,0,0,0,182.735,158.048Z" fill="#ff681d"></path><path d="M50.556,57.582a.4.4,0,0,0,0-.8H14.472a.4.4,0,0,0,0,.8Z" fill="#43f7b2"></path><path d="M96,82.173H59.337a.4.4,0,0,0,0,.8H96a.4.4,0,0,0,0-.8Z" fill="#13d38d"></path><path d="M102.6,119.727h36.529a.4.4,0,0,0,0-.8H102.6a.4.4,0,0,0,0,.8Z" fill="#ffc431"></path><path d="M102.6,115.384h36.529a.4.4,0,0,0,0-.8H102.6a.4.4,0,0,0,0,.8Z" fill="#ffc431"></path><path d="M102.6,111.04h36.529a.4.4,0,0,0,0-.8H102.6a.4.4,0,0,0,0,.8Z" fill="#ffc431"></path><path d="M146.206,156.145h36.529a.4.4,0,0,0,0-.8H146.206a.4.4,0,0,0,0,.8Z" fill="#ff681d"></path><path d="M108.484,100.448c8.758,7.5,20.8,8.015,30.843,3.1.464-.226.058-.918-.4-.692-8.163,4-18.25,4.449-26.665-.641a27.767,27.767,0,0,1-2.828-2.007,7.9,7.9,0,0,1-2.1-2.46c-.215-.468-.918-.056-.693.405A7.275,7.275,0,0,0,108.484,100.448Z" fill="#ffc431"></path><path d="M50.873,40.075s-33.918-.019-36.53,0a.406.406,0,0,0-.4.4V53.84a.406.406,0,0,0,.4.4c38.377.27,36.664.076,36.831-.144.147-.156.2.632.1-13.621A.406.406,0,0,0,50.873,40.075Z" fill="#43f7b2"></path><path d="M101.038,67.706a23.915,23.915,0,0,1-9.081.156A22.005,22.005,0,0,1,75.905,55.334a.4.4,0,0,0-.549-.144A92.087,92.087,0,0,0,65.159,64a.405.405,0,0,0-.063.486A28.4,28.4,0,0,0,96.621,78.1a2.2,2.2,0,0,0,.652-.171c.182-.114.218-.341.282-.53.968-2.833,2.554-6.285,3.761-9.079A.422.422,0,0,0,101.038,67.706Z" fill="#13d38d"></path><path d="M158.53,72.545a7.149,7.149,0,0,1-5.838-3.271c-2.188-3.189-1.769-7.974-.5-11.588.111-.316-.218-.539-.493-.493a79.4,79.4,0,0,0-10.712,2.579c-.324.147-.412.6-.524.919a19.537,19.537,0,0,0-1.032,7.756,12.537,12.537,0,0,0,3.254,7.885,9.908,9.908,0,0,0,8,3.551c.458-.045.272-.1,3.667-3.1A47.2,47.2,0,0,1,158.8,73.3.41.41,0,0,0,158.53,72.545Z" fill="#ff681d"></path><path d="M143.242,91.351s-3.54-5.7-3.692-5.948a.408.408,0,0,0-.549-.144,41.226,41.226,0,0,1-4.437,2.64,12.374,12.374,0,0,1-3.277,1.2,7.088,7.088,0,0,1-7.258-3.433.4.4,0,0,0-.63-.081c-2.4,2.349-5.519,3.808-8.506,5.263a.388.388,0,0,0-.2.346c.147,5.814,5.726,9.747,11.669,9.439,5-.259,10.754-3.545,14.609-6.686A16,16,0,0,0,143.2,91.8.351.351,0,0,0,143.242,91.351Z" fill="#ffc431"></path><path d="M36.955,122.426,32.6,129.24c.155-4.29.5-27.1-.016-57.023a.4.4,0,0,0-.8,0V129.4l-4.352-6.975c-.272-.437-.966-.035-.692.405,1.542,2.472,4.908,7.865,5.047,8.09a.407.407,0,0,0,.692,0c1.487-2.378,4.96-7.756,5.173-8.09C37.926,122.4,37.232,121.992,36.955,122.426Z" fill="#000001"></path><path d="M149.418,66.657l-1.072.812c-.11-.114-.247-.254-.354-.348a1.465,1.465,0,0,0-2.293.1,2.452,2.452,0,0,0-.145,2.369l-1.443,1.095a9.683,9.683,0,0,1-.869-1.276c-.241-.456-.93-.052-.692.405a7.964,7.964,0,0,0,.915,1.361l-1.194.9c-.406.309-.007,1,.405.693l1.286-.975c1.328,1.728,3.66.5,2.562-1.942.6-.454,1.185-.9,1.695-1.286a5.38,5.38,0,0,1,.621,1c.218.467.906.061.692-.405a6.028,6.028,0,0,0-.656-1.091l.946-.717C150.228,67.042,149.829,66.345,149.418,66.657Zm-2.316.8a2.359,2.359,0,0,1,.612.491l-1.492,1.131C145.945,68.257,146.328,67.186,147.1,67.458Zm-1.215,4.167c-.284.391-.833.155-1.1-.123-.052-.054-.123-.133-.178-.2l1.269-.962A1.513,1.513,0,0,1,145.887,71.625Z" fill="#000001"></path><path d="M85.149,68.926a5.608,5.608,0,0,0-.51-.5c.116-.161.211-.292.226-.315.294-.426-.4-.827-.692-.405l-.185.265a1.72,1.72,0,0,0-2.6,1.3,2.187,2.187,0,0,0,.672,1.333c-.353.467-.706.926-1.04,1.351-.243-.173-.506-.368-.738-.552-.4-.318-.972.245-.567.566.254.2.532.422.8.62l-.156.192c-.324.4.24.967.567.567.088-.108.174-.213.258-.318a3.827,3.827,0,0,0,.558.261,1.668,1.668,0,0,0,2.072-.824c.134-.33.222-.868-.721-1.9.4-.535.748-1.026,1.073-1.482a4.757,4.757,0,0,1,.416.412C84.926,69.878,85.492,69.309,85.149,68.926Zm-2.064,3.038c.109.457-.714.862-1.391.428.326-.414.628-.8.908-1.175A2.047,2.047,0,0,1,83.085,71.964Zm-.541-2.006c-.285-.349-.494-.744-.2-1.06a.994.994,0,0,1,1.162-.25C83.21,69.058,82.883,69.5,82.544,69.958Z" fill="#000001"></path><path d="M130.535,94.761a2.911,2.911,0,0,0-1.159-.828c-.114-.065-.267-.148-.393-.215.087-.488.165-.932.234-1.318.337.026.7.071,1.032.112.511.062.507-.74,0-.8-.274-.033-.592-.081-.89-.116.084-.471.134-.758.142-.8.089-.5-.683-.721-.774-.213-.012.071-.077.438-.172.973a2.75,2.75,0,0,0-.613.09,1.2,1.2,0,0,0-.31,2.214c.147.093.315.183.467.272-.1.556-.2,1.115-.287,1.625a1.928,1.928,0,0,1-.835-.6c-.319-.405-.884.167-.567.567a2.507,2.507,0,0,0,1.261.828c-.126.712-.216,1.218-.229,1.3-.09.5.683.721.773.213.084-.474.166-.942.247-1.4a2.528,2.528,0,0,0,1.828-.729A.981.981,0,0,0,130.535,94.761Zm-2.543-1.624a.406.406,0,0,1,.163-.721,1.209,1.209,0,0,1,.257-.053c-.051.291-.107.6-.164.926C128.166,93.24,128.066,93.192,127.992,93.137Zm1.731,2.229a1.754,1.754,0,0,1-1.12.5c.08-.456.158-.9.232-1.313.172.1.374.208.538.3a1.529,1.529,0,0,1,.389.23C129.868,95.208,129.84,95.236,129.723,95.366Z" fill="#000001"></path><path d="M32.865,45.135q-.032-.657-.078-1.295a3.687,3.687,0,0,1,1.5.4.4.4,0,0,0,.405-.693,4.577,4.577,0,0,0-1.969-.5c-.026-.308-.056-.61-.088-.906-.055-.507-.857-.513-.8,0,.031.293.061.589.088.887-.762.013-1.827.125-2.215.816-.335.6.008,1.349,2.386,1.914.021.557.033,1.117.035,1.675A4.072,4.072,0,0,1,30.262,46.4a.4.4,0,0,0-.566.566,4.449,4.449,0,0,0,2.429,1.264c0,.311-.01.621-.019.928a.4.4,0,0,0,.8,0q.014-.452.018-.911c.908-.124,1.973-.7,1.964-1.7C34.882,45.668,33.814,45.359,32.865,45.135Zm-1.653-.467c-.115-.044-.784-.308-.78-.45.008-.291,1.175-.379,1.553-.4q.041.546.069,1.1A6.8,6.8,0,0,1,31.212,44.668Zm2.18,2.656a2.065,2.065,0,0,1-.464.126c0-.494-.012-.991-.029-1.485a4.711,4.711,0,0,1,.924.317C34.438,46.579,33.778,47.157,33.392,47.324Z" fill="#000001"></path><path d="M54.573,31.689Q53.6,25,52.631,18.315c-.074-.508-.846-.292-.773.213Q52.829,25.215,53.8,31.9C53.873,32.411,54.646,32.194,54.573,31.689Z" fill="#ff5555"></path><path d="M57.9,31.2q2.061-5.157,4.121-10.313c.192-.479-.583-.687-.773-.213q-2.059,5.157-4.121,10.313C56.936,31.47,57.711,31.678,57.9,31.2Z" fill="#ff5555"></path><path d="M189,96.425c.319-.4-.245-.97-.567-.568l-8.157,10.181c-.32.4.244.97.567.567C187.115,98.773,188.67,96.833,189,96.425Z" fill="#ff5555"></path><path d="M182.136,108.607l11.877-6.42c.454-.245.049-.938-.405-.692l-11.877,6.419C181.277,108.16,181.681,108.852,182.136,108.607Z" fill="#ff5555"></path><path d="M189.012,11.136a.419.419,0,0,0-.453-.185,35.889,35.889,0,0,0-19.116,12.721.407.407,0,0,0,.063.486c2.255,2.365,4.627,4.616,6.837,7.023a.4.4,0,0,0,.567,0,39.143,39.143,0,0,1,16.315-10.117.411.411,0,0,0,.28-.493A26.54,26.54,0,0,0,189.012,11.136ZM176.635,30.325c-2.054-2.206-4.262-4.266-6.315-6.474A34.322,34.322,0,0,1,188.5,11.8a25.185,25.185,0,0,1,4.135,8.618A39.152,39.152,0,0,0,176.635,30.325Z" fill="#ff5555"></path><path d="M184.113,21.586c.58-.619.979-1.507.3-2.225a2.2,2.2,0,0,0-2.443-.289c-.453-.463-.907-.932-1.331-1.446a6.266,6.266,0,0,1,1.328-.651c.485-.169.277-.943-.213-.773a7.32,7.32,0,0,0-1.6.786c-.124-.175-.245-.357-.36-.546a.4.4,0,0,0-.692.4,6.432,6.432,0,0,0,.425.657,2.842,2.842,0,0,0-1.072,1.525,1.234,1.234,0,0,0,.477,1.154c.874.671,2,.249,2.886-.154a16.342,16.342,0,0,1,1.239,1.432,5.279,5.279,0,0,1-1.983.834c-.507.1-.292.872.213.774a5.88,5.88,0,0,0,2.218-.961c.022.034.043.068.064.1a.4.4,0,0,0,.693-.405C184.215,21.728,184.16,21.659,184.113,21.586Zm-4.02-1.849c-.426.017-1.024-.222-.8-.747a2.849,2.849,0,0,1,.718-.878c.375.438.793.869,1.221,1.309A3.264,3.264,0,0,1,180.093,19.737Zm2.486-.039c.843-.266,1.65.27,1.341.86a2.334,2.334,0,0,1-.265.374A15.457,15.457,0,0,0,182.579,19.7Z" fill="#ff5555"></path><path d="M81.715,147.838,77.388,154.6c.165-3.791.566-21.518-.036-56.651a.4.4,0,0,0-.8,0v56.878c-1.019-1.635-3.974-6.369-4.363-6.993-.273-.437-.967-.035-.693.4,1.543,2.473,4.909,7.865,5.048,8.09a.406.406,0,0,0,.692,0l5.173-8.09C82.686,147.806,81.992,147.4,81.715,147.838Z" fill="#000001"></path><path d="M124.481,159.972l-4.363,6.824V134.7a.4.4,0,0,0-.8,0v32.27c-1.019-1.634-3.973-6.369-4.363-6.993-.272-.437-.966-.034-.692.405,1.542,2.472,4.908,7.865,5.047,8.09a.416.416,0,0,0,.692,0c.038-.058,4.96-7.756,5.173-8.09C125.452,159.941,124.758,159.538,124.481,159.972Z" fill="#000001"></path><path d="M192.553,173.051c-9.6-.167-18.4,0-27.974,0,0-2.057-.006-3.876-.024-4.945a.4.4,0,0,0-.8,0v4.945H5.451a.4.4,0,0,0,0,.8h158.3v10.284c-1.019-1.633-3.973-6.369-4.363-6.993-.273-.437-.966-.034-.693.405l5.048,8.09a.416.416,0,0,0,.692,0l5.173-8.09c.279-.436-.415-.838-.692-.405l-4.363,6.823c0-2.05.02-6.457.023-10.114h27.975a.4.4,0,0,0,0-.8Z" fill="#000001"></path><path d="M149.162,177.18q-6.744,2.487-13.623,4.58c-.493.149-.283.924.213.773q6.876-2.092,13.624-4.58C149.856,177.776,149.648,177,149.162,177.18Z" fill="#000001"></path><path d="M140.67,188.951l9.135-8.684c.375-.356-.193-.922-.567-.567l-9.135,8.684C139.728,188.741,140.3,189.307,140.67,188.951Z" fill="#000001"></path><path d="M189.944,186.96,179.316,180.4c-.44-.272-.844.421-.405.692l10.629,6.562C189.98,187.924,190.383,187.23,189.944,186.96Z" fill="#000001"></path><path d="M192.557,181.051q-6.5-1.625-12.917-3.565a.4.4,0,0,0-.213.773q6.4,1.973,12.916,3.565a.4.4,0,0,0,.214-.773Z" fill="#000001"></path></g><g><path d="M59.337,83.042H96a.468.468,0,0,0,0-.936H59.337a.468.468,0,0,0,0,.936Z" fill="#000001"></path><path d="M102.6,119.794h36.529a.468.468,0,0,0,0-.936H102.6a.468.468,0,0,0,0,.936Z" fill="#000001"></path><path d="M102.6,115.45h36.529a.468.468,0,0,0,0-.935H102.6a.468.468,0,0,0,0,.935Z" fill="#000001"></path><path d="M102.6,111.107h36.529a.468.468,0,0,0,0-.935H102.6a.468.468,0,0,0,0,.935Z" fill="#000001"></path><path d="M146.206,156.212h36.53a.468.468,0,0,0,0-.935h-36.53a.468.468,0,0,0,0,.935Z" fill="#000001"></path><path d="M108.437,100.5c8.895,7.613,21.041,7.965,30.924,3.114.541-.264.067-1.071-.472-.808-8.13,4-18.245,4.427-26.6-.641a27.4,27.4,0,0,1-2.815-2,7.864,7.864,0,0,1-2.091-2.446c-.251-.546-1.069-.065-.807.472A7.3,7.3,0,0,0,108.437,100.5Z" fill="#000001"></path><path d="M50.873,40.008H14.343a.474.474,0,0,0-.467.468V53.841a.474.474,0,0,0,.467.467H47.189q-.767,1.194-1.5,2.406H14.472a.468.468,0,0,0,0,.935H45.138q-.6,1.026-1.181,2.064c-22.055,0-27.806-.031-29.329.011-.274.007-.761-.007-.752.457,0,0-.039,111.773-.01,112.8H5.451a.468.468,0,0,0,0,.936H163.686V183.9c-.947-1.519-3.773-6.048-4.239-6.793-.317-.51-1.127-.041-.807.472l5.047,8.09a.51.51,0,0,0,.923-.181l5.058-7.909c.325-.509-.484-.979-.808-.472l-4.239,6.628V173.92s23.692.076,27.932,0a.468.468,0,0,0,0-.936H183.32c1.336-5.893,5.207-10.937,8.523-15.857,1.5-2.22,3.365-4.691,3.138-7.525a5.131,5.131,0,0,0-2.6-4.279c-2.372-1.154-5.123.691-7.121,2.4,2.229-3.251,4.431-6.531,6.361-9.945,2.481-4.386,4.236-9.819,2.122-14.713-1.816-4.2-6.264-6.4-10.677-6.56-5.048-.186-9.689,2.35-13.51,5.431a60.657,60.657,0,0,0-8.206,8.072q3.248-6.006,5.939-12.293c1.182-2.772,2.437-5.778,1.793-8.848a5.871,5.871,0,0,0-4.931-4.891c-2.5-.3-4.649.851-6.5,2.381,1.62-2.965,3.035-6.254,2.61-9.542-.524-4.061-3.745-7.328-8.021-6.435a8.448,8.448,0,0,0-2.748,1.125,223.329,223.329,0,0,0,14.721-22.636c4.262-7.647,7.452-17.1,2.413-25.179a12.877,12.877,0,0,0-8.807-6.225c-4.645-.675-9.224,1.625-13.179,3.792-15.2,8.329-25.993,22.75-35.093,37.49.984-3.771.852-7.768-1.623-11.052-3.5-4.649-11.3-5.357-16.979-.12-.289-.068-.581-.128-.868-.207a107.033,107.033,0,0,0,6.073-22.141c.493-3.664.535-7.591-1.02-11.023a11.239,11.239,0,0,0-8.451-6.35c-12.584-2.2-27.522,10.1-35.334,20.532V40.476A.475.475,0,0,0,50.873,40.008ZM14.811,53.373V40.944H50.405V53.373ZM50.405,172.984H14.811V60.649H50.405Zm10.436,0c-.328,0-.69-.036-1.036-.03V86.116H95.4c0,11.265.126,80.635.127,86.868Zm77.816,0s-35.249-.014-35.593-.01V123.1h35.593Zm43.611,0H164.621v-4.878a.468.468,0,0,0-.935,0v4.878s-16.669-.014-17.012-.01V158.861c4.6,0,33.061.055,35.594.056ZM100.2,68.714c-1.224,2.8-2.5,5.58-3.482,8.469-12.383,3.141-24.42-2.7-30.677-12.827a96.219,96.219,0,0,1,9.352-8.1A22.891,22.891,0,0,0,100.2,68.714ZM78.43,29.287c10.133-2.655,16.386,1.893,17.019,10.152.319,4.153-.591,8.292-1.547,12.307a123.025,123.025,0,0,1-4.716,15.347A22.027,22.027,0,0,1,75.963,55.3a.468.468,0,0,0-.641-.167,98.394,98.394,0,0,0-10.21,8.823.478.478,0,0,0-.073.567,28.47,28.47,0,0,0,31.6,13.646,2.249,2.249,0,0,0,.668-.179c.311-.192.4-.833.521-1.163,1.536-4.25,3.64-8.376,3.6-8.73a.443.443,0,0,0-.563-.452,22.288,22.288,0,0,1-8.756.176c6.327-5.564,16.727-3.373,17.071,6.6a17.977,17.977,0,0,1-2.572,9.164.468.468,0,0,0,.807.472c8.817-14.826,18.871-29.9,33.56-39.507,3.711-2.427,7.87-4.886,12.223-5.9a11.071,11.071,0,0,1,11.075,3.467,16.338,16.338,0,0,1,4.054,10.53c.075,4.853-1.68,9.534-3.873,13.788C160.2,74.692,151.3,87.613,145.681,95.1c-.316.421.4.98.735.567,1.76-2.177,3.963-4.311,6.921-4.5A5.522,5.522,0,0,1,158.8,94.89c1.894,4.7-1.208,9.752-3.516,13.715a.47.47,0,0,0,.735.567c2.04-2.01,4.339-4.3,7.4-4.3,2.95,0,4.737,2.525,4.9,5.276.172,3.014-1.323,5.963-2.5,8.647a148.33,148.33,0,0,1-8.936,17.16c-.314.519.476.969.808.472a66.231,66.231,0,0,1,10.367-11.954c3.6-3.3,7.972-6.421,12.973-6.957,4.187-.448,8.952,1.009,11.254,4.752,2.814,4.577,1.162,10.267-1.227,14.619-1.685,3.07-4.425,7.069-10.13,15.534-.293.434.407.989.734.567a31.265,31.265,0,0,1,4.1-4.477c1.5-1.307,3.426-2.806,5.524-2.578,2.387.54,3.134,3.393,2.592,5.509-.681,2.656-2.676,4.983-4.188,7.215-2.428,3.586-5,7.3-6.485,11.408V158.449a.474.474,0,0,0-.467-.467c-28.613,0-34.919-.115-36.384-.039-.44.022-.577.029-.6.549-.039.854-.013,3.8-.013,14.492h-6.145V122.629a.474.474,0,0,0-.468-.468c-39.248-.261-36.606-.077-36.859.139-.215.228-.138-3.352-.138,50.684H96.462c0-11.264-.127-80.946-.128-87.335a.473.473,0,0,0-.468-.468c-39.194-.3-36.636-.063-36.826.115-.27.2-.171-1.2-.171,87.688H51.341V60.181a.475.475,0,0,0-.468-.468H45.03q.585-1.038,1.2-2.064h4.33a.468.468,0,0,0,0-.935h-3.77q.741-1.215,1.517-2.406h2.57a.425.425,0,0,0,.3-.115c.236-.183.171,0,.171-4.255C57.953,40.946,67.723,32.092,78.43,29.287Z" fill="#000001"></path><path d="M150.091,79.98c.507-.007.9,0,1.2-.344a65.8,65.8,0,0,1,7.536-6.283.479.479,0,0,0-.311-.875,7.086,7.086,0,0,1-5.769-3.237c-2.176-3.17-1.758-7.952-.5-11.537.129-.369-.255-.63-.576-.575a79.881,79.881,0,0,0-10.712,2.579c-.356.158-.448.621-.571.965a18.027,18.027,0,0,0-.077,12.065C141.992,76.742,145.88,80.026,150.091,79.98ZM141.45,60.54a79.458,79.458,0,0,1,9.669-2.359,17.334,17.334,0,0,0-.673,7.67,8.815,8.815,0,0,0,6.856,7.47,85.512,85.512,0,0,0-6.714,5.694c-4.616.327-8.837-3.686-9.947-8.331A17.816,17.816,0,0,1,141.45,60.54Z" fill="#000001"></path><path d="M126.364,100.7c5.706-.237,13.581-5.059,16.863-8.818.008-.014.015-.028.022-.042a.415.415,0,0,0,.051-.525c-3.342-5.112-3.27-5.266-3.692-5.948a.473.473,0,0,0-.64-.167,41.4,41.4,0,0,1-4.438,2.64,12.32,12.32,0,0,1-3.261,1.2,6.97,6.97,0,0,1-7.183-3.4.471.471,0,0,0-.734-.094c-2.4,2.344-5.511,3.8-8.492,5.252a.459.459,0,0,0-.232.4C114.873,97.156,120.506,101.063,126.364,100.7Zm-2.806-14.09a7.87,7.87,0,0,0,7,3.426,9.357,9.357,0,0,0,3.633-1,34.657,34.657,0,0,0,4.874-2.776L142.31,91.5a30.809,30.809,0,0,1-9.994,6.731c-4.194,1.935-8.624,2.269-12.608-.105a8.707,8.707,0,0,1-4.129-6.643A33.287,33.287,0,0,0,123.558,86.612Z" fill="#000001"></path><path d="M31.724,130.954a.473.473,0,0,0,.651.157c.137-.083-.186.387,5.33-8.247.325-.508-.484-.978-.808-.472q-2.124,3.324-4.249,6.646V72.217a.468.468,0,0,0-.936,0v56.951l-4.227-6.776c-.318-.509-1.128-.04-.808.472C32.2,131.713,30.624,129.172,31.724,130.954Z" fill="#000001"></path><path d="M79.665,72.017c.244.194.495.392.751.582-.036.044-.069.091-.1.135-.378.462.28,1.128.661.661.076-.093.146-.189.221-.282a4.5,4.5,0,0,0,.53.242,1.735,1.735,0,0,0,2.155-.87c.29-.723-.257-1.392-.7-1.921.27-.372.86-1.191,1-1.385.13.12.253.244.358.361.4.45,1.062-.214.662-.661a5.867,5.867,0,0,0-.467-.466c.063-.091.131-.178.194-.269.343-.5-.468-.965-.808-.472-.049.071-.1.139-.151.21a1.787,1.787,0,0,0-2.644,1.389,2.182,2.182,0,0,0,.656,1.338c-.321.421-.651.836-.98,1.251q-.34-.245-.669-.5a.48.48,0,0,0-.662,0A.469.469,0,0,0,79.665,72.017Zm2.726-3.072a.88.88,0,0,1,1-.264c-.28.392-.558.786-.845,1.173C82.305,69.544,82.15,69.208,82.391,68.945Zm.185,2.406a1.925,1.925,0,0,1,.444.631c.085.31-.514.772-1.229.369C82.054,72.019,82.318,71.687,82.576,71.351Z" fill="#000001"></path><path d="M142.71,72.826l1.25-.948c1.368,1.768,3.775.5,2.639-2l1.6-1.215a5.069,5.069,0,0,1,.581.935c.248.547,1.055.072.808-.472a5.734,5.734,0,0,0-.627-1.041l.893-.677a.48.48,0,0,0,.168-.64.467.467,0,0,0-.64-.167l-1.03.781c-.1-.106-.208-.213-.315-.307a1.531,1.531,0,0,0-2.4.109,2.436,2.436,0,0,0-.168,2.381l-1.351,1.024a9.254,9.254,0,0,1-.823-1.216c-.282-.532-1.08-.065-.808.472a8,8,0,0,0,.879,1.315l-1.133.859a.48.48,0,0,0-.168.64A.468.468,0,0,0,142.71,72.826Zm3.619-4.987a.655.655,0,0,1,.624-.365,1.628,1.628,0,0,1,.663.466l-1.36,1.031A1.545,1.545,0,0,1,146.329,67.839Zm-.493,2.616a1.252,1.252,0,0,1-.006,1.137c-.265.344-.758.111-1-.137-.044-.045-.082-.1-.124-.144Z" fill="#000001"></path><path d="M127.6,96.591c-.02.112-.166.938-.219,1.238-.1.589.8.842.9.249l.24-1.355a2.525,2.525,0,0,0,1.818-.743,1.048,1.048,0,0,0,.256-1.253,2.947,2.947,0,0,0-1.184-.851c-.106-.061-.239-.131-.353-.191q.108-.6.215-1.21c.326.027.652.064.978.1a.471.471,0,0,0,.468-.468.479.479,0,0,0-.468-.468c-.259-.031-.534-.07-.813-.1l.129-.729c.1-.589-.8-.842-.9-.249q-.081.463-.164.927a2.384,2.384,0,0,0-.575.089,1.268,1.268,0,0,0-.326,2.337c.14.088.285.168.427.251q-.132.749-.265,1.5a1.789,1.789,0,0,1-.736-.554.467.467,0,0,0-.661,0,.475.475,0,0,0,0,.661A2.489,2.489,0,0,0,127.6,96.591Zm1.288-1.933c.294.163.46.25.566.307.34.179.45.251,0,.553a1.727,1.727,0,0,1-.762.27Q128.785,95.223,128.884,94.658Zm-.554-2.212c-.044.246-.088.493-.131.739-.056-.036-.12-.066-.173-.105C127.766,92.89,127.887,92.5,128.33,92.446Z" fill="#000001"></path><path d="M33.868,45.363a8.1,8.1,0,0,0-.941-.287c-.02-.391-.037-.782-.066-1.172a3.479,3.479,0,0,1,1.392.4.468.468,0,0,0,.472-.807,4.563,4.563,0,0,0-1.947-.512c-.026-.28-.046-.561-.076-.841a.478.478,0,0,0-.468-.467.467.467,0,0,0-.468.467c.03.273.05.547.075.82-.78.017-1.8.144-2.193.849-.68,1.206,1.591,1.816,2.38,2.011.018.512.03,1.024.033,1.537a3.857,3.857,0,0,1-1.752-1,.463.463,0,0,0-.661.022.469.469,0,0,0,0,.64,4.461,4.461,0,0,0,2.4,1.277c0,.289,0,.578-.012.867a.468.468,0,0,0,.936,0c.009-.282.007-.565.011-.847.933-.135,1.982-.736,1.971-1.76C34.95,45.893,34.416,45.577,33.868,45.363ZM30.521,44.21a.971.971,0,0,1,.293-.154,3.793,3.793,0,0,1,1.111-.163c.023.315.036.631.053.947A3.519,3.519,0,0,1,30.521,44.21Zm3.436,2.558a1.384,1.384,0,0,1-.96.608c0-.444-.015-.887-.029-1.33a4.377,4.377,0,0,1,.822.294C34.007,46.447,34.076,46.54,33.957,46.768Z" fill="#000001"></path><path d="M54.311,32.246a.479.479,0,0,0,.326-.575L52.7,18.3a.472.472,0,0,0-.576-.327.479.479,0,0,0-.326.575L53.735,31.92A.471.471,0,0,0,54.311,32.246Z" fill="#000001"></path><path d="M57.965,31.221l4.121-10.312a.472.472,0,0,0-.327-.576.479.479,0,0,0-.575.327q-2.061,5.157-4.121,10.313a.472.472,0,0,0,.326.576A.48.48,0,0,0,57.965,31.221Z" fill="#000001"></path><path d="M189.045,95.81a.469.469,0,0,0-.662,0l-8.157,10.18a.48.48,0,0,0,0,.662.468.468,0,0,0,.662,0l8.157-10.18A.481.481,0,0,0,189.045,95.81Z" fill="#000001"></path><path d="M182.17,108.664l11.876-6.419c.53-.287.058-1.095-.472-.808L181.7,107.856C181.167,108.143,181.639,108.951,182.17,108.664Z" fill="#000001"></path><path d="M169.385,23.638a.477.477,0,0,0,.074.567c2.255,2.365,4.627,4.616,6.837,7.023a.469.469,0,0,0,.661,0,39.093,39.093,0,0,1,16.285-10.1.476.476,0,0,0,.327-.575,26.976,26.976,0,0,0-4.5-9.451.5.5,0,0,0-.081-.078.424.424,0,0,0-.447-.137A35.172,35.172,0,0,0,169.385,23.638Zm19.083-11.759a25.448,25.448,0,0,1,4.082,8.5,39.344,39.344,0,0,0-15.913,9.853c-2.028-2.174-4.2-4.208-6.228-6.383A34.285,34.285,0,0,1,188.468,11.879Z" fill="#000001"></path><path d="M178.889,20.235c.885.7,1.985.267,2.9-.145a15.092,15.092,0,0,1,1.172,1.342,4.857,4.857,0,0,1-1.905.8c-.591.113-.341,1.015.248.9a5.71,5.71,0,0,0,2.179-.936.469.469,0,1,0,.836-.425c-.036-.063-.082-.12-.12-.182.61-.643.975-1.524.266-2.275A2.2,2.2,0,0,0,181.989,19c-.4-.41-.837-.861-1.235-1.334a5.932,5.932,0,0,1,1.232-.621c.566-.2.323-1.1-.248-.9a7.258,7.258,0,0,0-1.563.777c-.118-.167-.224-.338-.326-.506a.468.468,0,0,0-.808.472c.121.208.255.411.4.61a2.73,2.73,0,0,0-1.052,1.52A1.29,1.29,0,0,0,178.889,20.235Zm4.973.289a1.581,1.581,0,0,1-.206.3c-.3-.378-.615-.741-.949-1.09C183.459,19.516,184.124,20.007,183.862,20.524Zm-4.51-1.508a2.5,2.5,0,0,1,.652-.81c.352.413.729.806,1.093,1.177C179.922,19.979,179.127,19.548,179.352,19.016Z" fill="#000001"></path><path d="M81.657,147.8l-4.238,6.628V97.953a.468.468,0,0,0-.936,0V154.6L72.245,147.8c-.318-.509-1.128-.041-.808.472l5.047,8.09a.474.474,0,0,0,.808,0l5.173-8.09C82.79,147.768,81.981,147.3,81.657,147.8Z" fill="#000001"></path><path d="M119.25,168.5c.34.549.709.153,1.045-.373.841-1.317,3.611-5.644,4.936-7.717.325-.509-.484-.979-.808-.472l-4.238,6.628V134.7a.468.468,0,0,0-.936,0v32.037l-4.238-6.793c-.318-.51-1.128-.041-.808.472C116.718,164.443,118.944,168.008,119.25,168.5Z" fill="#000001"></path><path d="M149.145,177.115q-6.744,2.487-13.624,4.58c-.574.175-.33,1.078.249.9q6.876-2.091,13.623-4.58C149.953,177.811,149.711,176.906,149.145,177.115Z" fill="#000001"></path><path d="M149.191,179.653l-9.135,8.684c-.438.416.225,1.076.661.662l9.135-8.684C150.29,179.9,149.627,179.238,149.191,179.653Z" fill="#000001"></path><path d="M189.978,186.9,179.35,180.34c-.514-.317-.985.492-.473.808l10.629,6.562C190.02,188.027,190.49,187.218,189.978,186.9Z" fill="#000001"></path><path d="M192.89,181.542a.468.468,0,0,0-.316-.555q-6.5-1.624-12.916-3.566a.468.468,0,0,0-.249.9q6.414,1.941,12.917,3.566A.468.468,0,0,0,192.89,181.542Z" fill="#000001"></path></g></svg>