<svg xmlns="http://www.w3.org/2000/svg" fill="none" viewBox="0 0 200 200"><g id="graph-positive-1--business-graph-positive-1"><g id="color"><g id="group"><path id="vector" fill="#2755A0" d="M172.405 22.566C160.432 22.414 160.762 22.547 160.662 22.573C160.586 22.5798 160.513 22.6072 160.452 22.6524C160.39 22.6977 160.342 22.7589 160.313 22.8294C160.284 22.9 160.275 22.9771 160.287 23.0525C160.299 23.1279 160.331 23.1986 160.38 23.257L160.396 23.28C162.347 25.231 164.287 27.202 166.253 29.139C166.333 29.2181 166.441 29.2625 166.553 29.2625C166.665 29.2625 166.773 29.2181 166.853 29.139C168.819 27.202 170.78 25.261 172.707 23.285C172.764 23.225 172.802 23.1497 172.817 23.0684C172.832 22.9871 172.823 22.9032 172.791 22.827C172.759 22.7507 172.705 22.6855 172.637 22.6391C172.568 22.5928 172.488 22.5674 172.405 22.566V22.566Z"></path><path id="vector_2" fill="#78B5FF" d="M127.419 115.39C122.095 115.322 122.339 115.377 122.238 115.397C122.162 115.404 122.089 115.431 122.028 115.476C121.966 115.522 121.919 115.583 121.889 115.653C121.86 115.724 121.851 115.801 121.863 115.877C121.875 115.952 121.907 116.023 121.956 116.081L121.971 116.105C122.829 116.962 123.684 117.832 124.548 118.683C124.587 118.722 124.634 118.754 124.686 118.775C124.737 118.796 124.792 118.807 124.848 118.807C124.904 118.807 124.959 118.796 125.01 118.775C125.062 118.754 125.109 118.722 125.148 118.683C126.012 117.832 126.874 116.978 127.721 116.11C127.778 116.05 127.817 115.975 127.832 115.893C127.847 115.812 127.838 115.728 127.806 115.651C127.774 115.575 127.72 115.509 127.651 115.463C127.583 115.417 127.502 115.391 127.419 115.39V115.39Z"></path><path id="vector_3" fill="#B6DBFF" d="M91.682 162.017C87.423 161.963 87.653 161.907 87.443 162.283C87.4102 162.352 87.3988 162.43 87.4102 162.505C87.4216 162.581 87.4553 162.652 87.507 162.708C87.573 162.808 89.355 164.567 89.455 164.666C89.5348 164.745 89.6426 164.79 89.755 164.79C89.8674 164.79 89.9752 164.745 90.055 164.666C90.703 164.028 91.355 163.388 91.984 162.737C92.0412 162.677 92.0797 162.602 92.0947 162.52C92.1097 162.439 92.1007 162.355 92.0686 162.278C92.0365 162.202 91.9829 162.136 91.9142 162.09C91.8456 162.044 91.7649 162.018 91.682 162.017V162.017Z"></path><path id="vector_4" fill="#B6DBFF" d="M98.728 170.235C98.6659 169.946 98.7099 169.644 98.852 169.384C98.7737 169.462 98.7088 169.552 98.66 169.651C95.36 175.451 89.816 181.983 87.46 185.975C87.432 186.023 87.414 186.077 87.4069 186.133C87.3999 186.188 87.404 186.244 87.419 186.298C87.434 186.352 87.4596 186.403 87.4942 186.447C87.5289 186.49 87.572 186.527 87.621 186.554C87.766 186.636 87.091 186.609 98.728 186.609C98.7 184.464 98.728 170.235 98.728 170.235Z"></path><path id="vector_5" fill="#78B5FF" d="M124.485 127.608C111.613 141.794 107.871 157.046 101.321 166.317C98.795 169.893 98.661 168.968 98.728 170.235V186.609C98.728 186.609 123.775 186.648 124.719 186.62C124.704 185.526 124.719 127.72 124.719 127.72C124.702 127.629 124.709 127.536 124.738 127.449C124.767 127.361 124.818 127.283 124.885 127.22C124.781 127.268 124.758 127.308 124.485 127.608Z"></path><path id="vector_6" fill="#2755A0" d="M167.269 36.8C167.266 36.7089 167.234 36.621 167.178 36.5494C167.121 36.4778 167.043 36.4263 166.955 36.4024C166.867 36.3785 166.774 36.3836 166.689 36.4168C166.604 36.4501 166.532 36.5097 166.484 36.587C145.866 71.116 147.028 104.622 134.694 119.181C131.923 122.451 128.155 124.628 125.025 127.093C124.915 127.151 124.826 127.243 124.771 127.355C124.716 127.467 124.698 127.594 124.719 127.717V186.617H166.848C166.96 186.613 167.067 186.566 167.145 186.485C167.223 186.405 167.268 186.297 167.269 186.185C167.269 186.185 167.27 36.887 167.269 36.8Z"></path><path id="vector_7" fill="#2755A0" d="M161.522 21.646C163.178 20.046 164.85 18.465 166.487 16.846C168.087 18.446 169.66 20.073 171.287 21.646C171.367 21.7256 171.474 21.7703 171.587 21.7703C171.7 21.7703 171.807 21.7256 171.887 21.646C171.967 21.5665 172.011 21.4585 172.011 21.346C172.011 21.2335 171.967 21.1256 171.887 21.046C170.219 19.32 168.505 17.639 166.794 15.954C166.755 15.9146 166.708 15.8833 166.656 15.862C166.605 15.8406 166.55 15.8297 166.494 15.8297C166.438 15.8297 166.383 15.8406 166.332 15.862C166.28 15.8833 166.233 15.9146 166.194 15.954C164.454 17.667 162.624 19.291 160.926 21.046C160.846 21.1251 160.802 21.2325 160.801 21.3446C160.801 21.4568 160.845 21.5645 160.924 21.644C161.003 21.7236 161.11 21.7685 161.223 21.7689C161.335 21.7693 161.442 21.7251 161.522 21.646V21.646Z"></path><path id="vector_8" fill="#000001" d="M179.842 22.472H194.593C194.701 22.4668 194.803 22.42 194.878 22.3416C194.953 22.2631 194.994 22.1589 194.994 22.0505C194.994 21.9422 194.953 21.838 194.878 21.7595C194.803 21.681 194.701 21.6343 194.593 21.629H179.842C179.734 21.6343 179.632 21.681 179.557 21.7595C179.482 21.838 179.441 21.9422 179.441 22.0505C179.441 22.1589 179.482 22.2631 179.557 22.3416C179.632 22.42 179.734 22.4668 179.842 22.472V22.472Z"></path><path id="vector_9" fill="#000001" d="M140.151 22.648H152.619C152.727 22.6427 152.829 22.596 152.904 22.5175C152.979 22.4391 153.02 22.3349 153.02 22.2265C153.02 22.1181 152.979 22.0139 152.904 21.9354C152.829 21.857 152.727 21.8103 152.619 21.805H140.151C140.043 21.8103 139.941 21.857 139.866 21.9354C139.791 22.0139 139.75 22.1181 139.75 22.2265C139.75 22.3349 139.791 22.4391 139.866 22.5175C139.941 22.596 140.043 22.6427 140.151 22.648Z"></path><path id="vector_10" fill="#000001" d="M153.1 18.909C153.535 19.233 153.956 18.502 153.526 18.181L147.191 13.451C146.756 13.126 146.336 13.858 146.766 14.179L153.1 18.909Z"></path><path id="vector_11" fill="#000001" d="M149.042 30.427C148.625 30.774 149.224 31.368 149.642 31.027L155.018 26.555C155.436 26.208 154.836 25.614 154.418 25.955L149.042 30.427Z"></path><path id="vector_12" fill="#000001" d="M179.351 19.077L186.556 14.518C187.014 14.229 186.591 13.499 186.131 13.79L178.926 18.349C178.468 18.638 178.891 19.368 179.351 19.077Z"></path><path id="vector_13" fill="#000001" d="M186.275 31.243C186.723 31.551 187.145 30.821 186.701 30.515L179.201 25.347C178.753 25.038 178.331 25.768 178.775 26.074L186.275 31.243Z"></path><path id="vector_14" fill="#000001" d="M16.518 72.253C18.567 72.853 33.976 77.053 34.733 77.253C34.8391 77.2776 34.9506 77.2602 35.0442 77.2045C35.1378 77.1488 35.2063 77.059 35.2352 76.954C35.2641 76.849 35.2513 76.7368 35.1995 76.641C35.1476 76.5452 35.0607 76.4732 34.957 76.44C32.908 75.84 17.499 71.64 16.742 71.446C16.6402 71.431 16.5365 71.4536 16.4502 71.5097C16.364 71.5658 16.3012 71.6515 16.2737 71.7506C16.2462 71.8497 16.2558 71.9555 16.3008 72.048C16.3458 72.1405 16.423 72.2134 16.518 72.253Z"></path><path id="vector_15" fill="#000001" d="M25.737 78.868C25.195 78.843 25.196 79.686 25.737 79.711L33.685 80.083C34.228 80.108 34.226 79.265 33.685 79.24L25.737 78.868Z"></path><path id="vector_16" fill="#000001" d="M35.108 74.351C35.545 74.673 35.966 73.942 35.533 73.623L28.251 68.255C27.814 67.933 27.393 68.664 27.825 68.983L35.108 74.351Z"></path><path id="vector_17" fill="#FF4848" d="M59.215 75.153C59.1089 75.1284 58.9974 75.1458 58.9038 75.2015C58.8102 75.2572 58.7417 75.347 58.7128 75.452C58.6839 75.557 58.6967 75.6692 58.7485 75.765C58.8004 75.8608 58.8872 75.9328 58.991 75.966C59.7547 76.1502 60.5455 76.1943 61.325 76.096C61.606 75.796 62.22 75.152 62.22 75.152C61.2256 75.3218 60.2096 75.3222 59.215 75.153V75.153Z"></path><path id="vector_18" fill="#FFC431" d="M121.657 61.669C115.057 51.879 107.211 41.458 99.084 30.669C99.0455 30.6072 98.9918 30.5562 98.9281 30.5209C98.8645 30.4856 98.7928 30.467 98.72 30.467C98.6472 30.467 98.5755 30.4856 98.5119 30.5209C98.4482 30.5562 98.3945 30.6072 98.356 30.669C94.9726 35.6179 91.2911 40.3563 87.332 44.858C87.2667 44.9172 87.2259 44.9986 87.2176 45.0863C87.2092 45.174 87.234 45.2616 87.287 45.332C91.232 51.216 101.41 66.453 102.53 68.2C102.578 68.2789 102.651 68.3402 102.736 68.3749C102.822 68.4097 102.916 68.416 103.006 68.393C108.375 66.893 116.473 64.065 121.406 62.285C121.467 62.2669 121.524 62.2352 121.571 62.1923C121.618 62.1494 121.655 62.0965 121.679 62.0373C121.704 61.9782 121.714 61.9143 121.71 61.8506C121.706 61.7868 121.688 61.7248 121.657 61.669V61.669Z"></path><path id="vector_19" fill="#FFC431" d="M97.408 66.955C96.191 65.083 87.079 51.084 86.644 50.391C86.585 50.2947 86.4903 50.2255 86.3806 50.1986C86.2709 50.1716 86.155 50.189 86.058 50.247C85.902 50.341 57.741 79.885 57.646 79.985C57.365 80.285 57.671 80.84 58.081 80.685C59.356 80.202 65.881 77.949 66.001 77.908C66.5355 77.4917 67.1955 77.2692 67.873 77.277C69.932 76.577 97.137 67.577 97.156 67.577C97.218 67.5589 97.275 67.5269 97.3229 67.4836C97.3707 67.4403 97.4082 67.3868 97.4324 67.3269C97.4567 67.2671 97.4671 67.2026 97.4628 67.1382C97.4586 67.0738 97.4399 67.0111 97.408 66.955V66.955Z"></path><path id="vector_20" fill="#000001" d="M58.294 88.447C57.538 84.361 54.368 80.347 49.894 80.447C44.202 80.568 40.287 85.989 40.245 91.547C33.626 89.599 27.714 98.632 30.474 103.853C27.329 103.278 23.933 104.28 22.321 107.211C21.003 110.011 21.798 113.483 25.121 115.695C30.411 110.43 35.341 105.295 40.405 99.451C41.7974 97.853 43.7461 96.8453 45.855 96.633C47.329 96.481 56.084 96.65 58.782 96.305C58.8885 93.6759 58.725 91.0428 58.294 88.447V88.447ZM53.378 89.708C53.0743 89.9653 52.7224 90.1595 52.3429 90.2795C51.9634 90.3994 51.5638 90.4426 51.1674 90.4066C50.7711 90.3706 50.3858 90.2561 50.0341 90.0697C49.6824 89.8833 49.3714 89.6288 49.119 89.321C48.7614 88.8125 48.568 88.2068 48.5646 87.5851C48.5612 86.9634 48.748 86.3556 49.1 85.8432C49.452 85.3308 49.9523 84.9383 50.5337 84.7184C51.1152 84.4985 51.75 84.4617 52.353 84.613C52.8357 84.8004 53.2635 85.1062 53.5968 85.5024C53.9302 85.8985 54.1585 86.3722 54.2606 86.8799C54.3628 87.3875 54.3354 87.9126 54.1812 88.4069C54.0269 88.9011 53.7507 89.3486 53.378 89.708V89.708Z"></path><path id="vector_21" fill="#F9705A" d="M21.254 152.92C21.1871 151.825 21.3577 150.728 21.754 149.705C17.177 146.331 12.391 142.217 8.193 138.416C6.31896 142.277 5.62568 146.604 6.2 150.857C6.82221 154.433 8.35979 157.786 10.663 160.591C10.9107 160.958 11.2696 161.235 11.6868 161.382C12.104 161.529 12.5575 161.539 12.9804 161.409C13.4033 161.279 13.7733 161.017 14.0359 160.661C14.2985 160.304 14.4398 159.873 14.439 159.431C14.332 158.548 13.631 157.131 12.839 153.731C12.498 152.257 12.708 150.078 14.239 149.754C15.832 149.534 15.639 152.854 16.739 154.627C17.945 156.859 21.744 156.824 21.254 152.92Z"></path><path id="vector_22" fill="#FC9070" d="M73.118 160.471C71.304 150.664 69.225 140.671 66.81 130.292C66.826 130.355 66.8277 130.42 66.8148 130.483C66.802 130.546 66.7749 130.606 66.7357 130.657C66.6966 130.708 66.6463 130.75 66.5886 130.779C66.531 130.808 66.4675 130.824 66.403 130.825C65.293 130.834 39.803 130.825 39.803 130.825C36.1085 138.454 31.8796 145.811 27.148 152.844C27.0898 152.939 26.9974 153.007 26.8898 153.035C26.7823 153.064 26.6681 153.049 26.571 152.995C26.451 152.924 24.881 151.895 24.781 151.824C24.681 152.124 16.892 177.197 16.224 179.814C16.2108 179.87 16.2089 179.928 16.2182 179.984C16.2275 180.041 16.248 180.095 16.2784 180.144C16.3088 180.192 16.3486 180.234 16.3954 180.268C16.4421 180.301 16.495 180.324 16.551 180.337C16.651 180.36 15.603 180.448 40.902 180.347C41.138 180.347 41.202 180.382 41.328 179.861C41.574 178.817 42.048 175.536 44.575 165.24C46.215 158.561 47.484 153.575 48.629 147.3C48.661 150.573 49.652 177.063 49.713 179.926C49.7151 180.037 49.7602 180.143 49.8389 180.222C49.9177 180.3 50.0238 180.345 50.135 180.347H75.958C76.0714 180.344 76.1792 180.297 76.2577 180.215C76.3363 180.133 76.3791 180.023 76.377 179.91C76.358 179 74.048 165.5 73.118 160.471ZM69.436 155.417L70.244 159.788C70.344 160.319 69.53 160.544 69.431 160.012L68.624 155.641C68.525 155.11 69.338 154.884 69.436 155.417V155.417ZM42.865 160.012L42.057 155.641C41.957 155.11 42.772 154.884 42.87 155.417L43.678 159.788C43.776 160.319 42.964 160.544 42.865 160.012V160.012Z"></path><path id="vector_23" fill="#F9705A" d="M80.917 72.917C80.651 73.006 69.932 76.581 67.873 77.277C68.3099 77.2682 68.7432 77.3573 69.1412 77.5378C69.5392 77.7183 69.8918 77.9855 70.173 78.32C71.58 80.02 71.118 83.412 70.619 85.565C70.497 86.094 69.683 85.865 69.806 85.341C70.236 83.5 70.752 80 69.385 78.7C69.0019 78.3455 68.5067 78.1365 67.9855 78.1092C67.4642 78.082 66.9499 78.2383 66.532 78.551C65.6441 79.2815 64.9754 80.2432 64.6 81.33C64.1857 82.3523 63.8631 83.4095 63.636 84.489C63.523 85.021 62.712 84.795 62.823 84.265C63.117 82.8977 63.5635 81.5677 64.154 80.3C64.5745 79.3697 65.2067 78.5506 66 77.908C65.456 78.093 59.275 80.244 59 80.346C59.051 80.425 59.1 80.507 59.147 80.585C61.1034 83.297 62.4974 86.3731 63.247 89.632C62.919 88.344 66.081 89.904 85.738 83.101C84.3428 79.61 82.7327 76.2089 80.917 72.917V72.917Z"></path><path id="vector_24" fill="#F9705A" d="M71.872 61.742C70.7561 61.0819 69.4651 60.7786 68.172 60.873C67.4382 60.9713 66.7523 61.2926 66.207 61.7934C65.6618 62.2941 65.2834 62.9502 65.123 63.673C63.7717 63.6061 62.4405 64.0215 61.367 64.845C60.9448 65.2405 60.6401 65.7451 60.4865 66.3029C60.333 66.8607 60.3366 67.4501 60.497 68.006C57.565 68.061 54.74 70.493 55.264 73.356C55.4507 74.0507 55.7309 74.7168 56.097 75.336C57.062 77.014 57.197 77.344 58.332 79.255C58.532 79.041 60.525 76.935 61.323 76.097C60.5436 76.1957 59.7527 76.1517 58.989 75.967C58.9361 75.9505 58.8869 75.9237 58.8443 75.8882C58.8017 75.8526 58.7666 75.809 58.7409 75.7599C58.7151 75.7108 58.6993 75.6571 58.6944 75.6018C58.6894 75.5466 58.6954 75.4909 58.712 75.438C58.926 74.759 59.712 75.582 62.218 75.153C65.584 71.626 65.293 71.975 65.276 71.853C65.005 69.835 63.109 69.017 61.065 68.853C60.528 68.809 60.525 67.966 61.065 68.01C63.321 68.195 65.351 69.048 65.982 71.21L69.762 67.25C69.4153 66.6421 68.9799 66.0893 68.47 65.61C67.6007 64.9508 66.5535 64.5676 65.464 64.51C64.925 64.475 64.923 63.621 65.464 63.667C66.467 63.6931 67.4463 63.9776 68.3072 64.493C69.168 65.0084 69.8813 65.7372 70.378 66.609L73.854 62.976C73.2308 62.5073 72.5676 62.0944 71.872 61.742V61.742Z"></path><path id="vector_25" fill="#CCEAFF" d="M92.66 88.945C92.0878 86.5381 91.31 84.1848 90.335 81.911C90.3037 81.8041 90.2321 81.7136 90.1351 81.6587C90.0382 81.6038 89.9238 81.5888 89.816 81.617C85.448 83.301 78.559 85.542 74.443 86.675C70.932 87.642 67.143 88.429 63.55 89.12C63.4428 89.1489 63.3513 89.2188 63.2952 89.3146C63.239 89.4103 63.2228 89.5244 63.25 89.632C63.943 92.263 64.65 93.703 62.155 95.213C60.8708 95.939 59.4295 96.3419 57.955 96.387C55.916 96.544 46.855 96.529 45.855 96.632C43.7461 96.8443 41.7973 97.852 40.405 99.45C28.559 113.12 19.93 120.385 5.122 135.035C5.08233 135.074 5.05084 135.121 5.02935 135.172C5.00785 135.224 4.99679 135.279 4.99679 135.335C4.99679 135.391 5.00785 135.446 5.02935 135.498C5.05084 135.549 5.08233 135.596 5.122 135.635C11.037 141.035 17.994 147.288 24.78 151.828C25.022 151.991 26.207 152.785 26.57 152.999C26.6671 153.053 26.7813 153.068 26.8888 153.039C26.9964 153.011 27.0888 152.943 27.147 152.848C31.8742 145.812 36.1022 138.453 39.8 130.825C39.8 130.825 65.291 130.834 66.4 130.825C66.4561 130.824 66.5116 130.813 66.5631 130.791C66.6147 130.769 66.6614 130.736 66.7004 130.696C66.7395 130.656 66.7702 130.608 66.7907 130.556C66.8112 130.504 66.8212 130.448 66.82 130.392C66.82 130.212 63.25 115.463 61.038 107.192C67.538 107.548 78.245 107.151 84.313 105C90.851 102.68 94.413 97.011 92.66 88.945ZM60.929 120.345C56.659 123.902 56.695 123.897 56.55 123.932C56.4794 123.959 56.4027 123.965 56.3289 123.949C56.2551 123.933 56.1874 123.896 56.134 123.843C56.08 123.789 53.058 120.913 52.792 120.643C52.526 120.373 52.624 120.359 52.92 116.32C53.095 113.941 54.114 100.337 54.167 99.32C54.1672 99.2174 54.2046 99.1183 54.2723 99.0412C54.3399 98.964 54.4333 98.914 54.535 98.9005C54.6367 98.8869 54.7399 98.9107 54.8254 98.9675C54.9109 99.0242 54.9729 99.11 55 99.209C55.176 99.796 60.069 116.581 61.042 119.938C61.0623 120.01 61.0626 120.086 61.0427 120.159C61.0227 120.231 60.9834 120.296 60.929 120.348V120.345ZM39.641 128.745C42.565 121.445 44.5457 113.801 45.535 106C45.602 105.468 46.445 105.464 46.378 106C45.3959 113.88 43.4049 121.601 40.454 128.973C40.255 129.474 39.44 129.256 39.641 128.752V128.745ZM59.788 104.8L58.91 101.99C58.748 101.47 59.562 101.249 59.723 101.766L60.601 104.576C60.763 105.092 59.949 105.312 59.788 104.8Z"></path><path id="vector_26" fill="#000001" d="M61.037 119.938C60.062 116.581 55.171 99.8 55 99.209C54.9699 99.1138 54.9071 99.0322 54.8228 98.9787C54.7384 98.9252 54.6379 98.9032 54.5389 98.9166C54.4399 98.93 54.3488 98.9779 54.2817 99.0519C54.2146 99.1259 54.1757 99.2212 54.172 99.321C54.119 100.337 52.715 118.921 52.64 120.213C52.612 120.693 52.84 120.584 56.14 123.846C56.2032 123.909 56.2855 123.949 56.3739 123.959C56.4623 123.97 56.5517 123.951 56.628 123.905C56.728 123.868 56.428 124.105 60.935 120.348C60.9875 120.295 61.0248 120.229 61.0427 120.157C61.0607 120.085 61.0587 120.009 61.037 119.938V119.938Z"></path><path id="vector_27" fill="#F9705A" d="M52.353 84.613C51.75 84.4617 51.1152 84.4985 50.5337 84.7184C49.9523 84.9383 49.452 85.3308 49.1 85.8432C48.748 86.3556 48.5612 86.9634 48.5646 87.5851C48.568 88.2068 48.7614 88.8125 49.119 89.321C49.3714 89.6288 49.6824 89.8833 50.0341 90.0697C50.3858 90.2561 50.7711 90.3706 51.1674 90.4066C51.5638 90.4426 51.9634 90.3994 52.3429 90.2795C52.7224 90.1595 53.0743 89.9653 53.378 89.708C53.7507 89.3486 54.0269 88.9011 54.1812 88.4069C54.3354 87.9126 54.3628 87.3875 54.2606 86.8799C54.1585 86.3722 53.9302 85.8985 53.5969 85.5024C53.2635 85.1062 52.8357 84.8004 52.353 84.613V84.613Z"></path><path id="vector_28" fill="#000001" d="M79.546 185.733L79.528 185.722C70.514 182.114 59.764 182.448 50.928 185.722C50.8327 185.752 50.7512 185.815 50.6977 185.899C50.6442 185.984 50.6222 186.084 50.6356 186.183C50.649 186.282 50.6969 186.373 50.7709 186.44C50.8449 186.507 50.9402 186.546 51.04 186.55H79.389C79.812 186.639 80.023 185.913 79.546 185.733Z"></path><path id="vector_29" fill="#000001" d="M42.377 185.733L42.359 185.722C33.345 182.114 22.595 182.448 13.759 185.722C13.6637 185.752 13.5822 185.815 13.5287 185.899C13.4752 185.984 13.4532 186.084 13.4666 186.183C13.48 186.282 13.5279 186.373 13.6019 186.44C13.6759 186.507 13.7712 186.546 13.871 186.55H42.22C42.643 186.639 42.854 185.913 42.377 185.733Z"></path><path id="vector_30" fill="#FF4848" d="M65.464 63.664C64.923 63.618 64.925 64.472 65.464 64.507C66.5535 64.5646 67.6007 64.9478 68.47 65.607C68.9804 66.0856 69.4166 66.6377 69.764 67.245L70.378 66.603C69.8809 65.7318 69.1675 65.0035 68.3067 64.4887C67.4458 63.9738 66.4667 63.6898 65.464 63.664V63.664Z"></path><path id="vector_31" fill="#FF4848" d="M61.067 68C60.527 67.956 60.53 68.8 61.067 68.843C63.107 69.01 65.007 69.826 65.278 71.843C65.295 71.967 65.172 72.051 65.984 71.201C65.355 69.046 63.331 68.19 61.067 68Z"></path><path id="vector_32" fill="#FF4848" d="M64.154 80.3C63.5651 81.5683 63.1203 82.8986 62.828 84.266C62.717 84.796 63.528 85.022 63.641 84.49C63.8681 83.4105 64.1907 82.3534 64.605 81.331C64.9805 80.2443 65.6491 79.2825 66.537 78.552C66.9549 78.2393 67.4692 78.083 67.9905 78.1102C68.5117 78.1375 69.0069 78.3465 69.39 78.701C70.758 80.001 70.24 83.508 69.811 85.342C69.688 85.869 70.502 86.095 70.624 85.566C71.113 83.458 71.596 79.995 70.178 78.321C69.6675 77.7294 68.9492 77.3566 68.1715 77.2797C67.3939 77.2029 66.6165 77.4278 66 77.908C65.2005 78.5445 64.5671 79.3653 64.154 80.3V80.3Z"></path><path id="vector_33" fill="#78B5FF" d="M59.788 104.8C59.949 105.316 60.763 105.1 60.601 104.576L59.723 101.766C59.562 101.25 58.748 101.466 58.91 101.99L59.788 104.8Z"></path><path id="vector_34" fill="#78B5FF" d="M45.535 106C44.5449 113.803 42.5642 121.447 39.641 128.749C39.441 129.249 40.255 129.471 40.454 128.973C43.4021 121.6 45.393 113.879 46.378 106C46.445 105.466 45.6 105.471 45.535 106Z"></path><path id="vector_35" fill="#FF681D" d="M70.244 159.788L69.436 155.417C69.336 154.884 68.525 155.11 68.624 155.641L69.431 160.012C69.53 160.545 70.342 160.319 70.244 159.788Z"></path><path id="vector_36" fill="#FF681D" d="M43.678 159.788L42.87 155.417C42.77 154.884 41.959 155.11 42.057 155.641L42.865 160.012C42.964 160.545 43.776 160.319 43.678 159.788Z"></path></g></g><g id="line"><g id="Слой 2"><path id="vector_37" fill="#000001" d="M160.472 23.358C162.399 25.285 164.312 27.226 166.253 29.139C166.333 29.2182 166.441 29.2626 166.553 29.2626C166.665 29.2626 166.773 29.2182 166.853 29.139C168.819 27.202 170.78 25.261 172.707 23.285C172.764 23.2252 172.802 23.1501 172.817 23.0689C172.832 22.9878 172.823 22.904 172.791 22.8279C172.759 22.7518 172.706 22.6865 172.638 22.64C172.57 22.5935 172.489 22.5678 172.407 22.566H160.757C160.3 22.566 160.114 23 160.472 23.358ZM166.551 28.245L161.715 23.409H171.387L166.551 28.245Z"></path><path id="vector_38" fill="#000001" d="M121.971 116.105C122.829 116.962 123.684 117.832 124.548 118.683C124.587 118.722 124.634 118.754 124.686 118.775C124.737 118.796 124.792 118.807 124.848 118.807C124.904 118.807 124.959 118.796 125.01 118.775C125.062 118.754 125.109 118.722 125.148 118.683C126.012 117.832 126.874 116.978 127.721 116.11C127.78 116.05 127.82 115.973 127.835 115.89C127.85 115.807 127.839 115.721 127.805 115.644C127.77 115.567 127.713 115.503 127.64 115.459C127.568 115.415 127.484 115.394 127.4 115.399C126.976 115.371 125.811 115.39 122.276 115.39C122.194 115.392 122.115 115.418 122.047 115.464C121.98 115.51 121.927 115.575 121.895 115.65C121.863 115.725 121.853 115.808 121.866 115.889C121.88 115.969 121.916 116.044 121.971 116.105V116.105ZM124.846 117.789L123.29 116.233H126.4L124.846 117.789Z"></path><path id="vector_39" fill="#000001" d="M89.455 164.666C89.5348 164.745 89.6426 164.79 89.755 164.79C89.8674 164.79 89.9752 164.745 90.055 164.666C90.703 164.028 91.355 163.388 91.984 162.737C92.0225 162.697 92.0526 162.649 92.0726 162.597C92.0927 162.545 92.1023 162.49 92.1009 162.434C92.0995 162.378 92.0872 162.323 92.0645 162.272C92.0419 162.221 92.0094 162.175 91.969 162.137C91.798 161.974 91.976 162.02 87.828 162.02C87.7484 162.021 87.6708 162.045 87.6042 162.088C87.5375 162.132 87.4845 162.193 87.4513 162.265C87.4181 162.338 87.4061 162.418 87.4167 162.497C87.4273 162.576 87.46 162.65 87.511 162.711C87.573 162.808 89.355 164.567 89.455 164.666ZM89.755 163.772L88.843 162.86H90.667L89.755 163.772Z"></path><path id="vector_40" fill="#000001" d="M167.525 36.815C167.514 36.386 166.693 36.24 166.484 36.589C162.418 43.6937 158.885 51.0907 155.915 58.719C147.894 78.257 148.305 84.174 143.43 100.274C142.294 104.134 140.924 107.921 139.33 111.615C138.156 114.346 136.596 116.895 134.697 119.183C130.474 124.068 126.951 124.534 122.297 130.127C111.451 143.167 108.007 156.545 101.322 166.317C101.247 166.424 89.082 183.228 87.461 185.975C87.4244 186.039 87.4052 186.112 87.4053 186.186C87.4054 186.26 87.4248 186.332 87.4616 186.396C87.4984 186.46 87.5513 186.514 87.615 186.551C87.6787 186.588 87.7511 186.608 87.825 186.609H166.849C166.96 186.608 167.067 186.563 167.146 186.485C167.224 186.406 167.269 186.299 167.27 186.188C167.533 66.454 167.525 37.79 167.525 36.815ZM98.679 185.766H88.593C91.87 180.606 95.422 176.625 98.679 171.266V185.766ZM124.637 185.766C124.637 185.766 99.79 185.755 99.574 185.753V169.832C107.917 160.523 111.465 143.262 124.65 128.685C124.65 128.685 124.613 185.116 124.637 185.766ZM142.669 185.766H125.563C125.563 185.766 125.627 128.45 125.569 127.735C133.297 121.724 137.308 120.857 142.68 105.318C142.68 199.373 142.6 184.215 142.669 185.766ZM166.417 185.766H143.593C143.593 118.258 143.593 102.543 143.593 102.522C143.774 101.788 144.004 101.067 144.283 100.364C147.215 90.683 149.196 80.759 152.348 71.153C156.29 60.0158 160.994 49.1632 166.426 38.672C166.426 75.815 166.41 185.664 166.417 185.766Z"></path><path id="vector_41" fill="#000001" d="M161.522 21.646C163.178 20.046 164.85 18.465 166.487 16.846C168.087 18.446 169.66 20.073 171.287 21.646C171.367 21.7256 171.474 21.7703 171.587 21.7703C171.7 21.7703 171.807 21.7256 171.887 21.646C171.967 21.5665 172.011 21.4585 172.011 21.346C172.011 21.2335 171.967 21.1256 171.887 21.046C170.219 19.32 168.505 17.639 166.794 15.954C166.755 15.9146 166.708 15.8833 166.656 15.862C166.605 15.8406 166.55 15.8297 166.494 15.8297C166.438 15.8297 166.383 15.8406 166.332 15.862C166.28 15.8833 166.233 15.9146 166.194 15.954C164.454 17.667 162.624 19.291 160.926 21.046C160.846 21.1251 160.802 21.2325 160.801 21.3446C160.801 21.4568 160.845 21.5645 160.924 21.644C161.003 21.7236 161.11 21.7685 161.223 21.7689C161.335 21.7693 161.442 21.7251 161.522 21.646V21.646Z"></path><path id="vector_42" fill="#000001" d="M179.842 22.472H194.593C194.701 22.4668 194.803 22.42 194.878 22.3416C194.953 22.2631 194.994 22.1589 194.994 22.0505C194.994 21.9422 194.953 21.838 194.878 21.7595C194.803 21.681 194.701 21.6343 194.593 21.629H179.842C179.734 21.6343 179.632 21.681 179.557 21.7595C179.482 21.838 179.441 21.9422 179.441 22.0505C179.441 22.1589 179.482 22.2631 179.557 22.3416C179.632 22.42 179.734 22.4668 179.842 22.472V22.472Z"></path><path id="vector_43" fill="#000001" d="M140.151 22.648H152.619C152.727 22.6427 152.829 22.596 152.904 22.5175C152.979 22.4391 153.02 22.3349 153.02 22.2265C153.02 22.1181 152.979 22.0139 152.904 21.9354C152.829 21.857 152.727 21.8103 152.619 21.805H140.151C140.043 21.8103 139.941 21.857 139.866 21.9354C139.791 22.0139 139.75 22.1181 139.75 22.2265C139.75 22.3349 139.791 22.4391 139.866 22.5175C139.941 22.596 140.043 22.6427 140.151 22.648Z"></path><path id="vector_44" fill="#000001" d="M153.1 18.909C153.535 19.233 153.956 18.502 153.526 18.181L147.191 13.451C146.756 13.126 146.336 13.858 146.766 14.179L153.1 18.909Z"></path><path id="vector_45" fill="#000001" d="M149.042 30.427C148.625 30.774 149.224 31.368 149.642 31.027L155.018 26.555C155.436 26.208 154.836 25.614 154.418 25.955L149.042 30.427Z"></path><path id="vector_46" fill="#000001" d="M179.351 19.077L186.556 14.518C187.014 14.229 186.591 13.499 186.131 13.79L178.926 18.349C178.468 18.638 178.891 19.368 179.351 19.077Z"></path><path id="vector_47" fill="#000001" d="M186.275 31.243C186.723 31.551 187.145 30.821 186.701 30.515L179.201 25.347C178.753 25.038 178.331 25.768 178.775 26.074L186.275 31.243Z"></path><path id="vector_48" fill="#000001" d="M103.006 68.4C108.375 66.9 116.464 64.076 121.406 62.292C121.468 62.2741 121.525 62.2424 121.572 62.1994C121.62 62.1563 121.658 62.103 121.682 62.0435C121.706 61.9839 121.717 61.9197 121.712 61.8555C121.708 61.7913 121.69 61.7289 121.658 61.673C115.058 51.883 107.212 41.462 99.085 30.673C99.0461 30.6116 98.9923 30.5611 98.9287 30.5261C98.8651 30.4911 98.7936 30.4728 98.721 30.4728C98.6484 30.4728 98.5769 30.4911 98.5133 30.5261C98.4497 30.5611 98.3959 30.6116 98.357 30.673C94.9658 35.6152 91.2843 40.3519 87.332 44.858C87.2667 44.9171 87.2259 44.9986 87.2176 45.0863C87.2092 45.174 87.234 45.2616 87.287 45.332C98.842 62.569 101.651 67.019 102.5 68.105C102.835 68.536 102.863 68.436 103.006 68.4ZM88.177 45.15C91.9343 40.8214 95.4573 36.2949 98.731 31.59C104.945 39.856 114.851 53.127 120.636 61.666C114.936 63.713 109.008 65.692 103.07 67.495C99.189 61.7 89.28 46.8 88.177 45.15Z"></path><path id="vector_49" fill="#000001" d="M53.944 102.367C52.544 121.407 52.513 120.357 52.792 120.643C52.807 120.658 56.072 123.784 56.134 123.843C56.2171 123.916 56.3237 123.956 56.434 123.956C56.5443 123.956 56.6509 123.916 56.734 123.843L60.934 120.343C60.9876 120.291 61.0259 120.225 61.0449 120.153C61.064 120.081 61.063 120.005 61.042 119.933C60.062 116.581 55.171 99.8 55 99.209C54.9699 99.1138 54.9071 99.0322 54.8228 98.9787C54.7384 98.9252 54.6379 98.9032 54.5389 98.9166C54.4399 98.93 54.3488 98.9779 54.2817 99.0519C54.2146 99.1259 54.1757 99.2212 54.172 99.321C54.114 100.337 54.018 101.351 53.944 102.367ZM60.144 119.905L56.444 122.984L53.474 120.138L54.827 101.687L60.144 119.905Z"></path><path id="vector_50" fill="#000001" d="M52.353 84.613C51.75 84.4617 51.1152 84.4985 50.5337 84.7184C49.9523 84.9383 49.452 85.3308 49.1 85.8432C48.748 86.3556 48.5612 86.9634 48.5646 87.5851C48.568 88.2068 48.7614 88.8125 49.119 89.321C49.3714 89.6288 49.6824 89.8833 50.0341 90.0697C50.3858 90.2561 50.7711 90.3706 51.1674 90.4066C51.5638 90.4426 51.9634 90.3994 52.3429 90.2795C52.7224 90.1595 53.0743 89.9653 53.378 89.708C53.7507 89.3486 54.0269 88.9011 54.1812 88.4069C54.3354 87.9126 54.3628 87.3875 54.2606 86.8799C54.1585 86.3722 53.9302 85.8985 53.5969 85.5024C53.2635 85.1062 52.8357 84.8004 52.353 84.613V84.613ZM52.782 89.113C52.3535 89.4484 51.8154 89.6121 51.2728 89.5722C50.7301 89.5323 50.2218 89.2915 49.847 88.897C49.5859 88.5156 49.4424 88.0661 49.4342 87.6039C49.426 87.1418 49.5535 86.6874 49.801 86.297C49.9999 85.9561 50.2977 85.6836 50.6549 85.5155C51.012 85.3475 51.4118 85.2919 51.8013 85.3561C52.1908 85.4203 52.5516 85.6012 52.836 85.8749C53.1204 86.1486 53.315 86.5023 53.394 86.889C53.5076 87.2799 53.5106 87.6947 53.4026 88.0871C53.2945 88.4796 53.0797 88.8344 52.782 89.112V89.113Z"></path><path id="vector_51" fill="#000001" d="M79.528 185.722C70.514 182.114 59.764 182.448 50.928 185.722C50.8327 185.752 50.7512 185.815 50.6977 185.899C50.6442 185.984 50.6222 186.084 50.6356 186.183C50.649 186.282 50.6969 186.373 50.7709 186.44C50.8449 186.507 50.9402 186.546 51.04 186.55C81.371 187.036 79.629 186.657 79.754 186.357C79.7875 186.304 79.8088 186.244 79.8163 186.181C79.8237 186.118 79.8171 186.055 79.797 185.995C79.7769 185.935 79.7438 185.881 79.7 185.836C79.6563 185.79 79.603 185.755 79.544 185.733L79.528 185.722ZM76.964 185.707H53.636C61.2392 183.388 69.3608 183.388 76.964 185.707V185.707Z"></path><path id="vector_52" fill="#000001" d="M42.22 186.55C42.605 186.631 42.839 186.013 42.452 185.771C42.4 185.738 42.395 185.746 42.359 185.722C33.345 182.114 22.595 182.448 13.759 185.722C13.6637 185.752 13.5822 185.815 13.5287 185.899C13.4752 185.984 13.4532 186.084 13.4666 186.183C13.48 186.282 13.5279 186.373 13.6019 186.44C13.6759 186.507 13.7712 186.546 13.871 186.55H42.22ZM39.795 185.707H16.466C24.071 183.387 32.195 183.387 39.8 185.707H39.795Z"></path><path id="vector_53" fill="#000001" d="M16.518 72.253C18.567 72.853 33.976 77.053 34.733 77.253C34.8391 77.2776 34.9506 77.2602 35.0442 77.2045C35.1378 77.1488 35.2063 77.059 35.2352 76.954C35.2641 76.849 35.2513 76.7368 35.1995 76.641C35.1476 76.5452 35.0607 76.4732 34.957 76.44C32.908 75.84 17.499 71.64 16.742 71.446C16.6402 71.431 16.5365 71.4536 16.4502 71.5097C16.364 71.5658 16.3012 71.6515 16.2737 71.7506C16.2462 71.8497 16.2558 71.9555 16.3008 72.048C16.3458 72.1405 16.423 72.2134 16.518 72.253Z"></path><path id="vector_54" fill="#000001" d="M25.737 78.868C25.195 78.843 25.196 79.686 25.737 79.711L33.685 80.083C34.228 80.108 34.226 79.265 33.685 79.24L25.737 78.868Z"></path><path id="vector_55" fill="#000001" d="M35.108 74.351C35.545 74.673 35.966 73.942 35.533 73.623L28.251 68.255C27.814 67.933 27.393 68.664 27.825 68.983L35.108 74.351Z"></path><path id="vector_56" fill="#000001" d="M97.447 67.046C97.417 66.946 96.147 65.024 86.647 50.391C86.6133 50.3367 86.5679 50.2906 86.5142 50.256C86.4605 50.2214 86.3998 50.1992 86.3364 50.191C86.273 50.1827 86.2086 50.1887 86.1479 50.2084C86.0871 50.2281 86.0315 50.2611 85.985 50.305C85.107 51.191 77.993 58.647 73.864 62.963C73.2368 62.5003 72.5714 62.0918 71.875 61.742C70.7591 61.0818 69.4681 60.7786 68.175 60.873C67.4412 60.9713 66.7553 61.2926 66.21 61.7933C65.6647 62.2941 65.2863 62.9502 65.126 63.673C61.253 63.78 59.967 65.815 60.5 68.006C57.6 68.061 54.739 70.471 55.267 73.356C55.4537 74.0507 55.7339 74.7168 56.1 75.336C56.84 76.623 57.6 78.036 58.333 79.257C58.033 79.574 58.101 79.494 57.647 79.986C57.347 80.299 57.714 80.886 58.13 80.664C58.381 80.564 58.673 80.464 59.001 80.34C59.882 81.814 61.825 83.665 63.686 91.295C63.8578 91.8393 63.9313 92.4099 63.903 92.98C63.67 94.931 60.785 96.109 58.791 96.304C58.8917 93.6751 58.7242 91.0428 58.291 88.448C57.491 84.371 54.366 80.389 49.891 80.448C44.563 80.606 41.043 84.998 40.339 90.418C40.2807 90.7917 40.2473 91.1688 40.239 91.547C33.71 89.626 27.661 98.547 30.468 103.853C27.298 103.273 23.918 104.298 22.315 107.211C21.038 109.926 21.68 113.377 25.097 115.711C21.07 119.721 7.66 132.511 5.113 135.036C5.07333 135.075 5.04184 135.122 5.02035 135.173C4.99886 135.225 4.98779 135.28 4.98779 135.336C4.98779 135.392 4.99886 135.447 5.02035 135.499C5.04184 135.55 5.07333 135.597 5.113 135.636C6.12233 136.557 7.13467 137.475 8.15 138.392C6.32678 142.277 5.65028 146.601 6.2 150.857C6.84068 154.427 8.37621 157.776 10.663 160.591C10.9107 160.958 11.2696 161.235 11.6868 161.382C12.104 161.529 12.5575 161.539 12.9804 161.409C13.4033 161.279 13.7733 161.017 14.0359 160.66C14.2985 160.304 14.4398 159.873 14.439 159.431C14.329 158.52 13.653 157.231 12.839 153.731C12.493 152.231 12.721 150.075 14.239 149.754C15.831 149.534 15.639 152.862 16.739 154.627C17.909 156.803 21.389 156.716 21.298 153.582C21.1267 152.278 21.2916 150.952 21.777 149.73C22.759 150.453 23.76 151.148 24.777 151.825C22.86 158.042 16.891 177.2 16.223 179.817C16.2083 179.879 16.2077 179.944 16.2211 180.007C16.2345 180.07 16.2616 180.129 16.3006 180.18C16.3395 180.231 16.3892 180.272 16.4462 180.302C16.5031 180.331 16.5659 180.348 16.63 180.35H40.9C40.992 180.349 41.0813 180.319 41.1545 180.263C41.2277 180.207 41.2809 180.129 41.306 180.041C43.522 167.975 46.52 158.85 48.627 147.303C48.659 150.577 49.634 177.067 49.711 179.929C49.7128 180.04 49.7579 180.146 49.8367 180.225C49.9154 180.304 50.0217 180.348 50.133 180.35H75.958C76.0224 180.349 76.0856 180.333 76.1431 180.304C76.2005 180.274 76.2505 180.233 76.2896 180.181C76.3286 180.13 76.3556 180.071 76.3684 180.008C76.3813 179.945 76.3798 179.879 76.364 179.817C72.5943 155.346 67.4788 131.1 61.041 107.192C67.0155 107.517 73.0075 107.225 78.922 106.32C92.575 104.287 96.115 95.414 90.51 82.361C90.451 82.213 90.392 82.061 90.335 81.914C90.3037 81.8071 90.232 81.7166 90.1351 81.6617C90.0382 81.6068 89.9238 81.5918 89.816 81.62C88.469 82.139 87.107 82.63 85.742 83.104C84.3516 79.6089 82.7387 76.2066 80.913 72.918C86.287 71.139 97.137 67.583 97.156 67.577C97.2101 67.5614 97.2605 67.5352 97.3044 67.5C97.3483 67.4648 97.3848 67.4213 97.4119 67.372C97.4389 67.3226 97.456 67.2684 97.462 67.2125C97.468 67.1565 97.4629 67.0999 97.447 67.046ZM67.97 61.759C69.692 61.359 71.83 62.542 73.262 63.59L70.352 66.632C69.9992 66.0093 69.548 65.4477 69.016 64.969C68.1403 64.2777 67.088 63.8463 65.979 63.724C66.0987 63.2454 66.3478 62.8089 66.699 62.4623C67.0501 62.1157 67.4898 61.8724 67.97 61.759V61.759ZM68.47 65.61C68.9808 66.089 69.4187 66.6402 69.77 67.246L65.98 71.21C65.349 69.139 63.544 68.276 61.39 68.035C60.148 64.583 65.613 63.4 68.47 65.61ZM58.937 78.617C58.422 77.747 57.894 76.83 57.401 75.95C56.764 74.811 55.801 73.471 56.089 72.109C57.035 67.673 64.855 67.898 65.289 71.937L62.23 75.147C61.233 75.3125 60.2157 75.3145 59.218 75.153C59.1119 75.1284 59.0004 75.1457 58.9068 75.2015C58.8132 75.2572 58.7447 75.3469 58.7158 75.452C58.6869 75.557 58.6997 75.6691 58.7515 75.7649C58.8034 75.8607 58.8902 75.9328 58.994 75.966C59.7555 76.149 60.5434 76.1951 61.321 76.102C60.34 77.132 59.524 77.992 58.937 78.617ZM26.264 104.951C27.9111 104.442 29.6694 104.416 31.331 104.875C31.4192 104.895 31.5117 104.887 31.5948 104.851C31.678 104.815 31.7475 104.754 31.7932 104.676C31.839 104.598 31.8586 104.507 31.8492 104.417C31.8398 104.327 31.8019 104.242 31.741 104.175C28.089 100.352 33.723 89.99 40.515 92.529C40.6227 92.5584 40.7376 92.5441 40.8347 92.489C40.9318 92.4339 41.0031 92.3425 41.033 92.235C41.133 91.642 41.104 91.019 41.188 90.42C42.508 81.059 51.541 78.777 55.471 84.15C56.8032 85.9883 57.5891 88.1656 57.738 90.431C57.9128 92.4123 57.9869 94.4012 57.96 96.39C56.022 96.54 46.773 96.541 45.86 96.636C43.7523 96.8522 41.8049 97.8592 40.41 99.454C35.895 104.713 30.648 110.216 25.756 115.069C21.188 112.419 21.626 106.482 26.264 104.951ZM20.676 150.442C19.986 152.957 20.811 153.209 20.276 154.634C20.1676 154.842 20.0003 155.015 19.795 155.129C19.5897 155.243 19.3553 155.295 19.121 155.277C17.137 155.149 16.867 152.477 16.456 151.077C16.121 149.944 15.475 148.715 14.095 148.927C13.5158 149.072 12.9969 149.396 12.6117 149.852C12.2264 150.308 11.9942 150.874 11.948 151.469C11.8069 152.354 11.8494 153.26 12.073 154.128C12.901 157.618 13.537 158.739 13.605 159.546C13.5885 159.715 13.5376 159.878 13.4554 160.026C13.3732 160.174 13.2614 160.304 13.1271 160.407C12.9927 160.51 12.8387 160.584 12.6744 160.626C12.5101 160.667 12.3391 160.674 12.172 160.646C11.438 160.527 10.972 159.611 10.572 159.054C6.414 153.172 5.555 146.673 8.872 139.025C12.804 142.553 16.819 146.001 21.045 149.168C20.922 149.575 20.775 150.049 20.676 150.442ZM75.468 179.5H50.541C50.201 166.692 49.38 155 49.459 142.3C49.459 141.841 48.702 141.707 48.631 142.188C46.639 155.67 43.155 165.629 40.555 179.502H17.19C18.84 173.667 20.58 168.167 25.512 152.302C25.866 152.532 26.212 152.78 26.57 152.994C26.6671 153.048 26.7813 153.063 26.8888 153.034C26.9964 153.006 27.0888 152.938 27.147 152.843C31.8634 145.802 36.091 138.446 39.8 130.826H66.06C69.807 147 72.97 162.963 75.468 179.5ZM89.686 82.561C91.508 86.948 93.095 91.99 91.763 96.553C90.247 101.753 85.338 104.366 79.907 105.287C73.4947 106.375 66.9785 106.722 60.487 106.32C60.4312 106.321 60.376 106.332 60.3247 106.354C60.2734 106.376 60.2269 106.408 60.1879 106.448C60.1489 106.488 60.1182 106.535 60.0974 106.587C60.0767 106.639 60.0663 106.694 60.067 106.75C60.067 107.114 62.35 114.839 65.867 129.982C37.793 129.982 39.355 129.882 39.175 130.191C35.5406 137.773 31.3582 145.079 26.661 152.053C19.666 147.653 12.531 141.28 6.034 135.324C17.638 124.143 30.652 112.1 41 100.046C41.6489 99.291 42.4413 98.6724 43.3312 98.2261C44.2211 97.7797 45.1908 97.5146 46.184 97.446C52.655 97.046 59.491 98.168 62.897 95.728C63.362 95.4412 63.7637 95.0628 64.0778 94.6158C64.3919 94.1688 64.6117 93.6626 64.724 93.128C64.7687 92.0105 64.587 90.8955 64.19 89.85C72.9019 88.2398 81.4395 85.799 89.686 82.561V82.561ZM84.954 83.373C78.1248 85.8363 71.104 87.7317 63.963 89.04C63.1519 85.8092 61.7474 82.7574 59.821 80.04C64.108 78.508 72.637 75.654 80.121 73.175C81.9367 76.4735 83.5507 79.879 84.954 83.373V83.373ZM59.454 79.287C63.358 75.145 86 51.544 86.23 51.3L96.393 66.938C88.917 69.383 66.808 76.631 59.455 79.287H59.454Z"></path><path id="vector_57" fill="#000001" d="M62.828 84.265C62.717 84.795 63.528 85.021 63.641 84.489C63.8681 83.4095 64.1907 82.3523 64.605 81.33C64.9805 80.2432 65.6491 79.2815 66.537 78.551C66.9549 78.2383 67.4692 78.082 67.9905 78.1092C68.5117 78.1364 69.0069 78.3455 69.39 78.7C70.758 80 70.24 83.507 69.811 85.341C69.688 85.868 70.502 86.094 70.624 85.565C71.113 83.457 71.596 79.994 70.178 78.32C69.766 77.8409 69.2146 77.5025 68.6009 77.3521C67.9872 77.2016 67.3418 77.2467 66.755 77.481C64.524 78.369 63.32 81.933 62.828 84.265Z"></path><path id="vector_58" fill="#000001" d="M59.788 104.8C59.949 105.316 60.763 105.1 60.601 104.576L59.723 101.766C59.562 101.249 58.748 101.466 58.91 101.99L59.788 104.8Z"></path><path id="vector_59" fill="#000001" d="M45.535 106C44.5449 113.803 42.5642 121.447 39.641 128.749C39.441 129.249 40.255 129.471 40.454 128.973C43.4021 121.6 45.393 113.879 46.378 106C46.445 105.466 45.6 105.471 45.535 106Z"></path><path id="vector_60" fill="#000001" d="M70.244 159.788L69.436 155.417C69.336 154.884 68.525 155.11 68.624 155.641L69.431 160.012C69.53 160.545 70.342 160.319 70.244 159.788Z"></path><path id="vector_61" fill="#000001" d="M43.678 159.788L42.87 155.417C42.77 154.884 41.959 155.11 42.057 155.641L42.865 160.012C42.964 160.545 43.776 160.319 43.678 159.788Z"></path></g></g></g></svg>